<svg width="17" height="16" viewBox="0 0 17 16" fill="none" xmlns="http://www.w3.org/2000/svg">
<path d="M0.262104 7.2311L0.96743 7.53073L0.995642 7.06655C1.29658 7.209 1.57636 7.32688 1.83968 7.47915C1.89376 7.51108 1.90316 7.66581 1.89846 7.76159C1.88763 7.82925 1.90074 7.89872 1.93536 7.95702C1.96997 8.01532 2.02371 8.05847 2.08655 8.07841C3.98623 8.96256 5.88356 9.84998 7.77853 10.7407C8.09593 10.8905 8.12884 10.8684 8.12884 10.4951C8.12884 9.81232 8.20643 9.9253 7.5975 9.6404L2.29344 7.15497C1.68686 6.87008 1.07558 6.59501 0.4737 6.30029C0.365104 6.24025 0.281427 6.14061 0.238591 6.02031C0.182165 5.84103 0.334986 5.77471 0.4737 5.70595L4.61867 3.76819C5.68842 3.277 6.75816 2.76861 7.82555 2.26023C7.91801 2.21239 8.01979 2.1875 8.12297 2.1875C8.22614 2.1875 8.32792 2.21239 8.42038 2.26023C10.7856 3.3736 13.1523 4.48288 15.5207 5.58806C15.6649 5.64972 15.788 5.75532 15.874 5.89112C15.96 6.02692 16.0048 6.18662 16.0026 6.34941C16.0403 7.46442 16.0026 7.52828 15.0857 7.96052C12.9016 8.98466 10.7127 10.0014 8.53323 11.0378C8.40247 11.1087 8.25734 11.1457 8.11004 11.1457C7.96274 11.1457 7.8176 11.1087 7.68684 11.0378C5.83888 10.1611 3.98623 9.29657 2.13592 8.42961C2.07714 8.4026 2.01366 8.3854 1.91962 8.35348V13.8475C1.8143 13.7505 1.71607 13.6454 1.62573 13.5331C1.50112 13.3514 1.39062 13.3612 1.24015 13.5036C1.16101 13.5732 1.07691 13.6365 0.988589 13.6927V13.3931C0.988589 11.6363 0.988589 9.87945 0.988589 8.12262C0.998161 8.05443 0.983956 7.98493 0.948567 7.92677C0.913178 7.86862 0.858961 7.82568 0.795798 7.8058C0.664137 7.75422 0.541881 7.67317 0.41022 7.62406C0.243293 7.55774 0.208029 7.44477 0.262104 7.2311Z" fill="#38C0F2"/>
<path d="M1.90511 7.786C1.90408 7.77785 1.90408 7.7696 1.90511 7.76145C1.90511 7.66566 1.90511 7.51585 1.84635 7.47901C1.58306 7.32674 1.30332 7.20885 1.00242 7.06641L0.976562 7.50848V7.53058L0.995369 8.12001C0.995369 9.87521 0.995369 11.632 0.995369 13.3905V13.6926C1.08368 13.6363 1.16776 13.5731 1.2469 13.5035C1.3903 13.361 1.50783 13.3512 1.63242 13.533C1.72275 13.6452 1.82097 13.7503 1.92627 13.8473V8.35333" fill="#0984AF"/>
<path d="M13.3457 9.43605C13.3457 10.0721 13.3575 10.664 13.3457 11.2535C13.3275 11.3968 13.2782 11.5339 13.2016 11.6544C13.125 11.7748 13.0231 11.8754 12.9037 11.9485C12.3238 12.3769 11.658 12.6616 10.957 12.7811C9.0537 13.1999 7.08674 13.1899 5.18744 12.7516C4.53901 12.6282 3.92239 12.3647 3.3771 11.978C3.21456 11.8717 3.08289 11.721 2.9963 11.5422C2.9097 11.3635 2.87147 11.1634 2.88573 10.9637C2.91159 10.4725 2.88573 9.98127 2.88573 9.43359C3.05971 9.50973 3.20077 9.56867 3.34183 9.63498C4.84418 10.3398 6.34652 11.0423 7.84417 11.7545C7.92866 11.7993 8.02211 11.8227 8.1169 11.8227C8.21168 11.8227 8.30513 11.7993 8.38962 11.7545C9.94134 11.0193 11.4954 10.2883 13.0518 9.5613C13.1318 9.52201 13.2164 9.49008 13.3457 9.43605Z" fill="#0984AF"/>
</svg>
