<svg width="201" height="25" viewBox="0 0 201 25" fill="none" xmlns="http://www.w3.org/2000/svg">
<path d="M0.520301 11.4603L1.93095 12.0595L1.98738 11.1312C2.58926 11.416 3.14881 11.6518 3.67546 11.9564C3.78361 12.0202 3.80242 12.3297 3.79301 12.5212C3.77135 12.6566 3.79758 12.7955 3.86681 12.9121C3.93603 13.0287 4.04351 13.115 4.16919 13.1549C7.96855 14.9232 11.7632 16.698 15.5532 18.4794C16.188 18.779 16.2538 18.7348 16.2538 17.9882C16.2538 16.6227 16.4089 16.8486 15.1911 16.2789L4.58298 11.308C3.36982 10.7382 2.14725 10.1881 0.943494 9.59863C0.726302 9.47855 0.558948 9.27926 0.473276 9.03867C0.360424 8.6801 0.666066 8.54747 0.943494 8.40994L9.23343 4.53443C11.3729 3.55204 13.5124 2.53527 15.6472 1.5185C15.8321 1.42283 16.0357 1.37305 16.242 1.37305C16.4484 1.37305 16.6519 1.42283 16.8368 1.5185C21.5672 3.74524 26.3008 5.9638 31.0374 8.17417C31.3259 8.29748 31.5722 8.50869 31.7441 8.78029C31.9161 9.05189 32.0057 9.37128 32.0014 9.69687C32.0766 11.9269 32.0014 12.0546 30.1675 12.9191C25.7992 14.9674 21.4215 17.0009 17.0626 19.0737C16.801 19.2154 16.5108 19.2894 16.2162 19.2894C15.9216 19.2894 15.6313 19.2154 15.3698 19.0737C11.6739 17.3202 7.96855 15.5912 4.26794 13.8573C4.15038 13.8032 4.02342 13.7689 3.83533 13.705V24.693C3.6247 24.499 3.42823 24.2888 3.24756 24.0643C2.99834 23.7008 2.77734 23.7204 2.4764 24.0053C2.31811 24.1445 2.14992 24.271 1.97327 24.3835V23.7843C1.97327 20.2706 1.97327 16.7569 1.97327 13.2433C1.99242 13.1069 1.96401 12.9679 1.89323 12.8516C1.82245 12.7353 1.71401 12.6494 1.58769 12.6096C1.32437 12.5065 1.07986 12.3444 0.816533 12.2462C0.482679 12.1135 0.412151 11.8876 0.520301 11.4603Z" fill="#38C0F2"/>
<path d="M3.80242 12.5701C3.80035 12.5537 3.80035 12.5372 3.80242 12.5209C3.80242 12.3294 3.80242 12.0297 3.68488 11.9561C3.15831 11.6515 2.59883 11.4158 1.99703 11.1309L1.94531 12.015V12.0592L1.98293 13.2381C1.98293 16.7485 1.98293 20.2621 1.98293 23.7791V24.3832C2.15955 24.2707 2.32772 24.1442 2.48599 24.005C2.77278 23.7201 3.00786 23.7005 3.25704 24.064C3.43769 24.2885 3.63413 24.4987 3.84473 24.6927V13.7047" fill="#0984AF"/>
<path d="M26.6914 15.8721C26.6914 17.1443 26.715 18.3281 26.6914 19.5069C26.655 19.7936 26.5565 20.0678 26.4033 20.3087C26.2501 20.5496 26.0463 20.7508 25.8074 20.897C24.6475 21.7537 23.316 22.3232 21.914 22.5621C18.1074 23.3999 14.1735 23.3798 10.3749 22.5032C9.07802 22.2564 7.84479 21.7294 6.7542 20.9559C6.42911 20.7433 6.16578 20.442 5.99259 20.0845C5.8194 19.727 5.74294 19.3269 5.77145 18.9273C5.82318 17.9449 5.77145 16.9625 5.77145 15.8672C6.11941 16.0195 6.40154 16.1373 6.68367 16.27C9.68836 17.6797 12.693 19.0845 15.6883 20.509C15.8573 20.5987 16.0442 20.6455 16.2338 20.6455C16.4234 20.6455 16.6103 20.5987 16.7792 20.509C19.8827 19.0387 22.9908 17.5765 26.1037 16.1226C26.2635 16.044 26.4328 15.9802 26.6914 15.8721Z" fill="#0984AF"/>
<mask id="mask0_444_2570" style="mask-type:luminance" maskUnits="userSpaceOnUse" x="34" y="1" width="167" height="23">
<path d="M200.446 1.4043H34.832V23.0315H200.446V1.4043Z" fill="white"/>
</mask>
<g mask="url(#mask0_444_2570)">
<path d="M96.7379 4.97617C97.5702 2.30899 99.8836 0.678224 102.47 1.72447C103.796 2.26969 103.763 4.67163 101.943 4.10675C100.754 3.73836 100.091 4.41129 99.5263 5.31509C99.056 6.04206 98.741 6.98023 100.26 6.87708C100.871 6.93111 101.144 7.42231 101.163 8.08051C101.173 8.21037 101.158 8.34106 101.12 8.46498C101.081 8.5889 101.019 8.70357 100.938 8.80231C100.857 8.90105 100.757 8.98188 100.646 9.04011C100.534 9.09834 100.412 9.1328 100.288 9.14148C99.8858 9.16552 99.5053 9.33986 99.2159 9.63268C98.9248 9.92263 98.7458 10.3142 98.7128 10.7329C98.1141 14.6232 97.5294 18.5167 96.9589 22.4135C96.5754 22.7906 96.0744 23.0103 95.5482 23.0324C95.0229 23.006 94.5234 22.7869 94.1376 22.4135C94.1893 18.8917 94.9369 15.4435 95.3789 11.9757C95.4448 11.5287 95.3084 9.93721 94.8523 9.70635C94.2739 9.38708 93.9495 9.83407 93.658 10.227C93.0326 11.062 92.4354 11.0277 91.8053 10.2663C90.4981 9.80459 89.5765 10.5119 89.3413 12.2606C89.1674 13.4345 89.031 14.6085 88.9652 15.7873C88.8993 17.2609 88.1 17.8012 86.821 17.6932C85.4621 17.5704 85.8335 16.4406 85.9041 15.6105C86.1109 13.3117 86.1251 10.3989 86.5341 8.12471C86.8586 6.37607 87.2959 5.96838 88.9464 6.42519C90.8272 7.93315 90.9072 7.80544 91.8899 6.94585C92.1438 6.7199 92.8304 6.99988 93.3006 7.0883C95.3931 7.51563 96.0561 7.0883 96.7003 4.98108L96.7379 4.97617Z" fill="#00AEEF"/>
<path d="M119.512 6.81836C120.687 6.90677 120.654 11.5977 118.816 9.87849C117.776 8.89611 115.924 9.35783 114.87 10.6251C113.817 11.8924 113.643 13.7933 115.463 14.5547C116.465 14.9623 119.102 13.867 119.836 14.6775C120.085 14.9771 120.005 15.5125 119.366 16.7847C118.957 17.6 116.323 18.1649 113.921 17.045C108.664 13.7884 111.57 6.32716 119.502 6.83309L119.512 6.81836Z" fill="#00AEEF"/>
<path d="M70.7689 12.9783C70.38 13.5322 69.875 13.9858 69.2924 14.3045C64.5903 16.3872 67.0119 8.83263 68.6765 8.99472C69.2512 9.03082 69.7933 9.286 70.2 9.71186C70.6046 10.1396 70.8383 10.7121 70.8536 11.3132C70.8677 11.8697 70.8394 12.4265 70.7689 12.9783ZM69.1655 6.87768C68.0088 7.00048 67.8912 6.29316 67.7548 5.2813C67.6687 4.92817 67.4641 4.61904 67.1783 4.41005C66.8925 4.20105 66.5444 4.10606 66.1973 4.14233C65.8502 4.17859 65.527 4.3437 65.2865 4.60767C65.046 4.87164 64.904 5.21697 64.8865 5.58093C64.6855 7.42122 63.9201 9.14425 62.7047 10.4929C62.2968 10.9322 61.9487 11.428 61.6702 11.9664C61.5735 12.1083 61.5333 12.2837 61.5578 12.4559C61.5824 12.6281 61.6698 12.7837 61.8019 12.8899C61.8673 12.941 61.9428 12.9762 62.0229 12.993C62.1017 13.0127 62.1839 13.0127 62.2627 12.993C62.3414 12.9687 62.4149 12.9287 62.479 12.8751C62.5402 12.8202 62.5884 12.7513 62.6201 12.6738C62.8082 12.3398 63.3536 11.5588 63.7956 11.6914C64.548 11.9517 63.1138 18.9119 62.9304 20.2578C62.6389 22.5762 62.7047 22.5222 64.9194 22.5222C67.7407 22.5222 64.4163 17.4285 67.6044 17.4285C70.5479 17.4285 72.6921 16.1514 73.7172 13.3025C74.3755 9.95746 73.9664 6.87768 69.1702 6.91698L69.1655 6.87768Z" fill="#00AEEF"/>
<path d="M83.1437 7.74154C78.6343 4.43581 72.3569 10.4824 75.8459 15.9494C77.4306 17.9142 80.6751 18.5576 82.6359 17.1872C83.2613 16.7304 84.1359 16.0722 83.7409 15.134C83.313 14.1074 82.3302 14.4267 81.6155 14.8C78.9259 16.6567 76.2691 12.8352 78.6719 12.4963C79.9838 12.3047 81.324 12.4963 82.6359 12.4619C85.5606 12.3931 84.7472 8.90567 83.139 7.74154H83.1437ZM79.965 9.01373C80.3915 9.01309 80.8019 9.18342 81.1116 9.4896C81.4213 9.79577 81.6067 10.2144 81.6296 10.6592H78.3381C78.3563 10.2153 78.5384 9.79601 78.8461 9.48924C79.1538 9.18247 79.5632 9.01206 79.9886 9.01373H79.965Z" fill="#00AEEF"/>
<path d="M125.557 17.5934C120.314 16.3408 124.583 10.2992 122.815 9.18907C122.406 8.94347 120.812 9.79323 121.132 7.86285C121.287 6.9787 121.95 6.92467 122.543 6.9787C124.188 7.20956 123.817 6.1142 123.953 5.26444C123.979 5.02642 124.067 4.80036 124.207 4.61115C124.63 4.06101 125.411 4.30661 126.008 4.23784C126.892 4.12978 126.892 4.81745 126.892 5.47565C126.248 7.1408 127.395 6.94923 128.082 6.99344C128.768 7.03764 128.956 7.25377 128.97 7.88249V7.91688C128.976 8.16426 128.917 8.40862 128.801 8.6242C128.298 9.40519 127.729 8.90909 127.066 9.06627C126.403 9.22345 125.975 9.88165 125.811 10.697C124.87 15.6433 126.257 15.2406 127.273 14.6266C128.213 14.0814 128.467 14.1354 128.345 15.5648C128.33 15.9351 128.237 16.2974 128.072 16.6257C127.838 16.9103 127.55 17.1416 127.226 17.3055C126.903 17.4694 126.551 17.5623 126.191 17.5786C125.971 17.5983 125.749 17.5983 125.528 17.5786L125.557 17.5934Z" fill="#00AEEF"/>
<path d="M109.205 7.74154C104.696 4.43581 98.3904 10.4824 101.908 15.9494C103.488 17.9142 106.737 18.5576 108.669 17.1872C109.318 16.7304 110.174 16.0722 109.793 15.134C109.365 14.1074 108.35 14.4267 107.668 14.8C104.978 16.6567 102.307 12.8352 104.724 12.4963C106.031 12.3047 107.362 12.4963 108.683 12.4619C111.594 12.3931 110.795 8.90567 109.187 7.74154H109.205ZM106.036 9.01373C106.461 9.01206 106.871 9.18247 107.179 9.48924C107.486 9.79601 107.668 10.2153 107.687 10.6592H104.367C104.392 10.2167 104.577 9.80064 104.884 9.49511C105.194 9.18651 105.603 9.01114 106.031 9.00391L106.036 9.01373Z" fill="#00AEEF"/>
<path d="M55.023 13.9603L53.2362 8.89605H52.2958C52.1641 8.89605 52.0936 8.80764 52.1124 8.65046L52.1782 7.74666C52.1782 7.58948 52.2628 7.50106 52.3992 7.50106H55.4086C55.5591 7.50106 55.6296 7.58948 55.6108 7.74666L55.545 8.65046C55.552 8.68114 55.552 8.7131 55.545 8.74378C55.5359 8.77512 55.5197 8.80375 55.4979 8.82729C55.4768 8.85068 55.4512 8.8691 55.4227 8.88132C55.3931 8.88645 55.363 8.88645 55.3334 8.88132H54.6374L56.6171 14.2844H56.6641L58.8224 8.88132H58.0747C57.9384 8.88132 57.8913 8.7929 57.8913 8.63572L57.9572 7.73192C57.9572 7.57474 58.0418 7.48633 58.1782 7.48633H61.2722C61.3945 7.48633 61.4603 7.57474 61.4462 7.73192L61.3945 8.63572C61.3945 8.7929 61.3098 8.88132 61.1688 8.88132H60.2283L55.9964 21.1611H56.6312C56.7534 21.1611 56.8192 21.2299 56.8051 21.392L56.744 22.2369C56.744 22.4137 56.6594 22.4972 56.523 22.4972H53.5795C53.4431 22.4972 53.3961 22.4235 53.3961 22.2369L53.4619 21.392C53.4575 21.3619 53.4597 21.3312 53.4684 21.3021C53.477 21.273 53.4919 21.2464 53.5118 21.2242C53.5317 21.202 53.5562 21.1847 53.5834 21.1738C53.6106 21.1629 53.6398 21.1586 53.6688 21.1611H54.6516C55.1218 19.5156 56.0293 16.6323 56.0152 16.4162C56.0105 16.4162 55.1406 14.2501 55.023 13.9603Z" fill="#919191"/>
<path d="M51.0231 17.7918H48.2018C48.0795 17.7918 48.0137 17.7034 48.0137 17.5315V16.6866C48.0137 16.5098 48.0842 16.4263 48.2018 16.4263H48.9118V11.6666C48.9498 11.0366 48.8074 10.4091 48.5027 9.86397C48.3696 9.65542 48.187 9.4865 47.9727 9.37372C47.7584 9.26093 47.5198 9.20814 47.2801 9.2205C46.8746 9.23383 46.4819 9.37227 46.1516 9.61837C45.8224 9.86485 45.5691 10.2062 45.4228 10.6008C45.479 10.8569 45.5074 11.1189 45.5074 11.3818V16.446H46.3397C46.4573 16.446 46.5278 16.5344 46.5278 16.7063V17.561C46.5278 17.7181 46.4573 17.7869 46.3397 17.7869H43.4996C43.3679 17.7869 43.2974 17.7181 43.2974 17.561V16.6915C43.2974 16.5344 43.3679 16.4312 43.4996 16.4312H44.299V11.6666C44.3299 11.0354 44.1828 10.4086 43.8758 9.86397C43.7403 9.65498 43.5557 9.48585 43.3397 9.37277C43.1258 9.2599 42.8879 9.2058 42.6485 9.21559C42.3179 9.18939 41.988 9.27554 41.7081 9.46119C41.5363 9.59198 41.3786 9.74185 41.2378 9.90817C41.1287 10.0181 41.0353 10.1438 40.9604 10.2815C40.8417 10.4902 40.7395 10.7087 40.6548 10.9348V16.441H41.4071C41.5247 16.441 41.5764 16.5295 41.5764 16.7014V17.5561C41.5764 17.7132 41.5247 17.782 41.4071 17.782H38.5858C38.4494 17.782 38.3789 17.7132 38.3789 17.5561V16.6866C38.3789 16.5295 38.4494 16.4263 38.5858 16.4263H39.3993V9.25489H38.5858C38.4494 9.25489 38.3789 9.16647 38.3789 9.00929V8.17426C38.3789 7.99743 38.4494 7.92375 38.5858 7.92375H40.0482C40.1133 7.90915 40.1806 7.90915 40.2457 7.92375C40.311 7.94355 40.3718 7.97697 40.4244 8.02199C40.5072 8.17037 40.5434 8.34218 40.5278 8.51319L40.4949 9.52996H40.5466C40.7238 9.01157 41.0529 8.5647 41.4871 8.25285C41.9202 7.93292 42.4377 7.76129 42.9682 7.76166C43.466 7.73142 43.9586 7.88017 44.3641 8.18314C44.7696 8.4861 45.0636 8.92501 45.1971 9.4268C45.4004 8.9341 45.7371 8.51414 46.1657 8.21847C46.5949 7.92448 47.0961 7.76588 47.6093 7.76166C47.973 7.74034 48.336 7.81513 48.6647 7.97911C48.9935 8.14308 49.2774 8.39096 49.4902 8.69984C49.9727 9.45151 50.2117 10.345 50.172 11.2491V16.4165H51.0748C51.197 16.4165 51.2488 16.5049 51.2488 16.6768V17.5168C51.2488 17.6936 51.197 17.7771 51.0748 17.7771L51.0231 17.7918Z" fill="#919191"/>
<path d="M141.136 11.6254C141.136 14.7543 139.283 16.8075 136.626 16.8075C135.963 16.8355 135.305 16.6725 134.725 16.3364C134.145 16.0003 133.664 15.504 133.335 14.9017H133.297C133.335 15.496 133.354 15.7416 133.354 16.2083V19.4943H134.637C134.668 19.4868 134.701 19.4868 134.731 19.4943C134.763 19.5064 134.792 19.5247 134.816 19.5484C134.836 19.5732 134.852 19.6015 134.863 19.6319C134.87 19.6642 134.87 19.6977 134.863 19.7301V20.6143C134.872 20.648 134.872 20.6837 134.863 20.7174C134.855 20.7507 134.839 20.7811 134.816 20.8058C134.792 20.8309 134.763 20.8509 134.731 20.8648C134.699 20.8721 134.665 20.8721 134.633 20.8648H130.626H130.528C130.496 20.854 130.468 20.8335 130.448 20.8058C130.424 20.7814 130.406 20.751 130.396 20.7174C130.389 20.6851 130.389 20.6515 130.396 20.6192V19.735C130.389 19.7027 130.389 19.6691 130.396 19.6368C130.407 19.6054 130.425 19.5769 130.448 19.5532C130.47 19.5295 130.498 19.5111 130.528 19.4992C130.56 19.4919 130.594 19.4919 130.626 19.4992H131.727V7.96112H130.626C130.596 7.96866 130.563 7.96866 130.532 7.96112C130.503 7.95071 130.476 7.93398 130.452 7.912C130.429 7.88863 130.412 7.86007 130.401 7.8285C130.394 7.79615 130.394 7.76261 130.401 7.73026V6.83629C130.391 6.80263 130.391 6.7668 130.401 6.73314C130.41 6.69943 130.427 6.66849 130.45 6.64287C130.472 6.61725 130.501 6.59768 130.532 6.58578C130.566 6.57618 130.602 6.57618 130.636 6.58578H133.034C133.069 6.57599 133.107 6.57599 133.142 6.58578C133.176 6.59702 133.207 6.61733 133.231 6.64472C133.257 6.67018 133.275 6.70251 133.283 6.73805C133.29 6.77369 133.29 6.81047 133.283 6.84611C133.283 7.36678 133.241 7.92674 133.222 8.46214H133.283C133.673 7.47975 134.896 6.45316 136.767 6.45316C139.363 6.44334 141.136 8.55547 141.136 11.6254ZM139.481 11.6254C139.481 9.27752 138.122 7.87762 136.476 7.87762C134.83 7.87762 133.316 9.21858 133.316 11.6254C133.316 13.9193 134.727 15.3732 136.467 15.3732C138.206 15.3732 139.481 13.8604 139.481 11.6254Z" fill="#919191"/>
<path d="M152.166 15.5396V16.414C152.171 16.4482 152.171 16.4829 152.166 16.5171C152.152 16.5479 152.133 16.5761 152.11 16.6006C152.085 16.6227 152.056 16.6394 152.025 16.6497C151.994 16.6573 151.962 16.6573 151.931 16.6497H150.238C150.127 16.6582 150.014 16.6415 149.909 16.6006C149.751 16.5423 149.614 16.4318 149.521 16.2856C149.428 16.1394 149.382 15.9655 149.392 15.7901V14.9895H149.35C148.963 15.5634 148.446 16.0277 147.845 16.3403C147.243 16.6556 146.576 16.8108 145.903 16.7922C144.022 16.7922 142.715 15.7066 142.715 13.9678C142.715 11.8802 144.431 10.8733 146.989 10.8733H149.213V10.3526C149.213 8.87905 148.386 7.85246 146.674 7.85246C145.754 7.82202 144.85 8.11807 144.111 8.6924C144.082 8.72127 144.047 8.74161 144.008 8.75134C143.966 8.7635 143.922 8.7635 143.881 8.75134C143.841 8.74628 143.802 8.73112 143.768 8.70713C143.731 8.68709 143.7 8.65643 143.679 8.61872L143.246 7.96543C143.227 7.93383 143.212 7.89894 143.204 7.86228C143.199 7.82643 143.199 7.79007 143.204 7.75422C143.212 7.71756 143.227 7.68267 143.246 7.65107C143.268 7.62151 143.295 7.59652 143.326 7.57739C144.29 6.77328 145.498 6.35831 146.73 6.40835C149.552 6.40835 150.845 7.98508 150.845 10.3379V15.2498H151.931C151.964 15.245 151.997 15.245 152.03 15.2498C152.06 15.2642 152.088 15.2823 152.114 15.3039C152.138 15.3272 152.155 15.3558 152.166 15.3874C152.175 15.4211 152.175 15.4568 152.166 15.4905V15.5396ZM149.19 13.5749V12.1602H146.904C145.404 12.1602 144.346 12.7497 144.346 13.8597C144.346 14.8028 145.075 15.3775 146.157 15.3333C146.759 15.2998 147.346 15.122 147.872 14.8137C148.398 14.5054 148.849 14.0748 149.19 13.5552V13.5749Z" fill="#919191"/>
<path d="M163.901 11.6254C163.901 14.7543 162.048 16.8075 159.391 16.8075C158.728 16.8355 158.07 16.6725 157.49 16.3364C156.909 16.0003 156.428 15.504 156.1 14.9017H156.062C156.1 15.496 156.119 15.7416 156.119 16.2083V19.4944H157.402C157.433 19.4868 157.465 19.4868 157.496 19.4944C157.527 19.5053 157.554 19.5238 157.576 19.5484C157.599 19.5718 157.617 19.6003 157.628 19.6319C157.635 19.6643 157.635 19.6978 157.628 19.7301V20.6143C157.635 20.6483 157.635 20.6834 157.628 20.7174C157.62 20.7507 157.604 20.7812 157.581 20.8058C157.557 20.831 157.528 20.851 157.496 20.8648C157.464 20.8721 157.43 20.8721 157.398 20.8648H153.387C153.355 20.8699 153.324 20.8699 153.293 20.8648C153.26 20.8528 153.231 20.8325 153.208 20.8058C153.187 20.7799 153.171 20.7499 153.161 20.7174C153.154 20.6851 153.154 20.6515 153.161 20.6192V19.735C153.154 19.7027 153.154 19.6692 153.161 19.6368C153.172 19.6054 153.19 19.5769 153.213 19.5532C153.235 19.5295 153.262 19.5111 153.293 19.4993C153.324 19.4921 153.356 19.4921 153.387 19.4993H154.468V7.96115H153.363C153.334 7.96828 153.303 7.96828 153.274 7.96115C153.244 7.952 153.216 7.93512 153.194 7.91203C153.171 7.88866 153.153 7.8601 153.142 7.82852C153.138 7.79595 153.138 7.76286 153.142 7.73029V6.83632C153.135 6.80234 153.135 6.76714 153.142 6.73317C153.152 6.69807 153.169 6.66601 153.194 6.63984C153.215 6.61479 153.243 6.59615 153.274 6.58581C153.306 6.57612 153.34 6.57612 153.372 6.58581H155.775C155.808 6.57584 155.842 6.57584 155.874 6.58581C155.906 6.596 155.935 6.6146 155.959 6.63984C155.983 6.66601 156.001 6.69807 156.01 6.73317C156.02 6.76683 156.02 6.80265 156.01 6.83632C156.01 7.35698 155.973 7.91694 155.954 8.45234H156.01C156.41 7.46995 157.628 6.44336 159.499 6.44336C162.128 6.44336 163.901 8.55549 163.901 11.6254ZM162.245 11.6254C162.245 9.27754 160.887 7.87765 159.236 7.87765C157.586 7.87765 156.076 9.2186 156.076 11.6254C156.076 13.9193 157.487 15.3733 159.227 15.3733C160.966 15.3733 162.245 13.8604 162.245 11.6254Z" fill="#919191"/>
<path d="M174.26 12.0991H167.263C167.289 12.9817 167.644 13.8186 168.253 14.4309C168.862 15.0432 169.676 15.3822 170.522 15.3754C171.033 15.3851 171.54 15.2778 172.007 15.061C172.477 14.8445 172.897 14.5264 173.239 14.1277C173.259 14.0973 173.287 14.0734 173.319 14.059C173.349 14.0402 173.383 14.0301 173.418 14.0295C173.452 14.0244 173.487 14.0244 173.522 14.0295C173.556 14.0432 173.586 14.0651 173.611 14.0934L174.161 14.614C174.189 14.6335 174.213 14.6585 174.232 14.6877C174.249 14.7157 174.261 14.7477 174.265 14.781C174.272 14.815 174.272 14.8502 174.265 14.8842C174.256 14.9178 174.242 14.9495 174.222 14.9775C173.776 15.5711 173.201 16.0445 172.544 16.3578C171.885 16.6722 171.165 16.8187 170.442 16.7851C167.62 16.7851 165.594 14.8203 165.594 11.5981C165.594 8.3022 167.945 6.41602 170.164 6.41602C172.986 6.41602 174.514 8.425 174.514 11.8191C174.521 11.8548 174.521 11.8916 174.514 11.9272C174.501 11.9602 174.481 11.9902 174.457 12.0156C174.434 12.0423 174.405 12.0626 174.373 12.0746C174.34 12.0816 174.307 12.0816 174.274 12.0746L174.26 12.0991ZM172.849 10.7238C172.769 9.10776 171.824 7.87977 170.211 7.87977C168.801 7.87977 167.625 8.86216 167.315 10.7238H172.849Z" fill="#919191"/>
<path d="M176.046 16.4148V15.5356C176.037 15.5019 176.037 15.4662 176.046 15.4325C176.057 15.4009 176.075 15.3723 176.098 15.3489C176.119 15.3229 176.146 15.304 176.178 15.2949C176.209 15.2877 176.241 15.2877 176.272 15.2949H177.377V7.9614H176.272C176.241 7.97068 176.208 7.97068 176.178 7.9614C176.148 7.95189 176.12 7.93506 176.098 7.91229C176.076 7.8876 176.059 7.85939 176.046 7.82878C176.039 7.79647 176.039 7.76286 176.046 7.73054V6.83657C176.037 6.80122 176.037 6.76386 176.046 6.72851C176.052 6.69443 176.069 6.66335 176.093 6.64009C176.117 6.61498 176.146 6.59498 176.178 6.58115C176.21 6.57385 176.244 6.57385 176.277 6.58115H178.628C178.66 6.57385 178.694 6.57385 178.726 6.58115C178.758 6.59498 178.787 6.61498 178.811 6.64009C178.835 6.66449 178.853 6.69492 178.863 6.72851C178.87 6.76415 178.87 6.80093 178.863 6.83657V9.12553H178.919C178.976 8.84064 179.723 6.54677 182.62 6.54677C182.651 6.5417 182.683 6.5417 182.714 6.54677C182.745 6.56059 182.774 6.5806 182.798 6.60571C182.843 6.65465 182.869 6.71968 182.869 6.78745V7.97614C182.87 8.0107 182.865 8.04517 182.853 8.07738C182.841 8.10959 182.822 8.13885 182.799 8.1633C182.776 8.18776 182.748 8.20688 182.717 8.21948C182.686 8.23207 182.653 8.23786 182.62 8.23647H182.211C180.363 8.23647 179.041 10.103 179.041 11.9646V15.2753H180.871C180.904 15.2654 180.94 15.2654 180.974 15.2753C181.006 15.2866 181.035 15.3051 181.059 15.3293C181.083 15.3547 181.102 15.3848 181.115 15.4177C181.124 15.4514 181.124 15.4872 181.115 15.5209V16.4148C181.124 16.4485 181.124 16.4843 181.115 16.518C181.105 16.5516 181.088 16.582 181.063 16.6064C181.038 16.6302 181.007 16.6471 180.974 16.6555C180.941 16.6628 180.908 16.6628 180.875 16.6555H176.295C176.264 16.6626 176.232 16.6626 176.201 16.6555C176.171 16.6437 176.144 16.6253 176.121 16.6016C176.099 16.5779 176.081 16.5494 176.07 16.518C176.062 16.4857 176.062 16.4521 176.07 16.4197L176.046 16.4148Z" fill="#919191"/>
<path d="M184.35 16.1307C184.228 16.1297 184.108 16.0909 184.007 16.0191C183.905 15.9472 183.827 15.8456 183.78 15.7271C183.734 15.6085 183.722 15.4783 183.747 15.3529C183.771 15.2274 183.831 15.1124 183.918 15.0222C184.005 14.932 184.115 14.8707 184.236 14.8461C184.356 14.8215 184.48 14.8346 184.594 14.8838C184.707 14.933 184.803 15.0161 184.871 15.1226C184.939 15.2292 184.976 15.3543 184.976 15.4823C184.977 15.5973 184.946 15.7101 184.886 15.8065C184.834 15.9057 184.755 15.9874 184.661 16.0423C184.567 16.1023 184.46 16.133 184.35 16.1307Z" fill="#919191"/>
<path d="M187.256 12.7464V16.0718H186.438V10.5459H187.227V11.4055H187.298C187.419 11.1285 187.615 10.8946 187.862 10.7325C188.159 10.5482 188.5 10.4578 188.845 10.4722C189.172 10.4656 189.495 10.545 189.785 10.7031C190.059 10.8572 190.28 11.0978 190.415 11.3907C190.577 11.7565 190.654 12.157 190.641 12.5598V16.0718H189.823V12.6334C189.845 12.2634 189.728 11.8988 189.498 11.6167C189.383 11.4917 189.244 11.3942 189.09 11.3306C188.936 11.267 188.77 11.2389 188.605 11.2483C188.362 11.2437 188.123 11.3046 187.909 11.4251C187.708 11.5456 187.544 11.7249 187.439 11.9409C187.315 12.1893 187.252 12.4662 187.256 12.7464Z" fill="#919191"/>
<path d="M194.373 16.1845C193.909 16.1966 193.45 16.076 193.047 15.8358C192.679 15.5984 192.383 15.2581 192.191 14.8534C191.988 14.3917 191.887 13.888 191.895 13.3798C191.888 12.8718 191.989 12.3685 192.191 11.9062C192.375 11.4931 192.667 11.1424 193.033 10.8944C193.407 10.6438 193.844 10.5156 194.288 10.526C194.568 10.5273 194.846 10.5754 195.111 10.6684C195.383 10.7702 195.633 10.929 195.844 11.1351C196.08 11.3735 196.261 11.6638 196.376 11.9848C196.517 12.404 196.584 12.8469 196.573 13.2914V13.65H192.478V12.9132H195.741C195.747 12.6238 195.686 12.3373 195.562 12.0781C195.448 11.8411 195.274 11.6409 195.059 11.4985C194.826 11.3549 194.559 11.2818 194.288 11.2873C193.989 11.2769 193.694 11.3664 193.447 11.5427C193.213 11.7028 193.025 11.9249 192.901 12.1862C192.775 12.4536 192.711 12.7479 192.713 13.0458V13.537C192.704 13.9041 192.775 14.2685 192.92 14.6029C193.049 14.8764 193.252 15.105 193.503 15.2611C193.952 15.5023 194.474 15.5482 194.956 15.3888C195.131 15.3301 195.292 15.2311 195.426 15.099C195.559 14.9615 195.658 14.7932 195.717 14.6078L196.507 14.8386C196.428 15.1164 196.284 15.3695 196.089 15.5754C195.884 15.7911 195.637 15.9586 195.365 16.0666C195.044 16.171 194.708 16.211 194.373 16.1845Z" fill="#919191"/>
<path d="M200.122 10.5469V11.2641H197.367V10.5469H200.122ZM198.171 9.2207H198.985V14.4912C198.973 14.6761 199.009 14.8609 199.088 15.0266C199.146 15.135 199.237 15.2198 199.347 15.2673C199.457 15.3051 199.573 15.3234 199.69 15.3213C199.763 15.327 199.837 15.327 199.911 15.3213L200.052 15.2919L200.216 16.0532C200.141 16.08 200.064 16.1014 199.986 16.1171C199.862 16.1451 199.736 16.1583 199.61 16.1564C199.375 16.1543 199.142 16.1008 198.928 15.9992C198.707 15.8895 198.519 15.7198 198.383 15.508C198.234 15.2705 198.16 14.9907 198.171 14.7073V9.2207Z" fill="#919191"/>
<g opacity="0.22">
<path d="M96.5715 4.94686C97.4038 2.26986 99.7172 0.644013 102.303 1.68534C103.629 2.23548 103.597 4.6325 101.777 4.07745C100.587 3.70414 99.9242 4.37708 99.3599 5.28088C98.8897 6.00293 98.5793 6.94111 100.093 6.84287C100.705 6.8969 100.977 7.393 100.996 8.04629C101.013 8.30687 100.932 8.564 100.771 8.76343C100.606 8.95984 100.375 9.08288 100.126 9.10727C99.7238 9.13114 99.3427 9.30473 99.0521 9.59664C98.7614 9.88855 98.5804 10.2795 98.5417 10.6987C97.9492 14.5923 97.3646 18.4858 96.7878 22.3793C96.4079 22.7622 95.9048 22.9829 95.3771 22.9982C94.8509 22.9761 94.35 22.7563 93.9665 22.3793C94.0135 18.8575 94.7612 15.4093 95.2032 11.9415C95.2737 11.4994 95.1373 9.903 94.6765 9.67705C94.0981 9.35286 93.7784 9.79985 93.4869 10.1977C92.8568 11.0278 92.2596 10.9935 91.6342 10.2321C90.3223 9.77038 89.4007 10.4924 89.1656 12.2313C88.9963 13.4003 88.8552 14.5792 88.7894 15.7531C88.7236 17.2267 87.9242 17.7719 86.6452 17.6638C85.2863 17.541 85.6577 16.4064 85.7283 15.5812C85.9352 13.2775 85.9493 10.3696 86.3584 8.09541C86.6828 6.34185 87.1107 5.93416 88.7753 6.39588C90.6562 7.89893 90.7314 7.77614 91.7189 6.91655C91.9681 6.68569 92.6593 6.97058 93.1295 7.05408C95.222 7.48142 95.885 7.05408 96.5292 4.95178L96.5715 4.94686Z" fill="#00AEEF"/>
<path d="M119.348 6.7827C120.519 6.87112 120.486 11.562 118.647 9.84284C117.608 8.86045 115.756 9.32217 114.702 10.5845C113.649 11.8469 113.48 13.7527 115.295 14.5141C116.296 14.9218 118.939 13.8215 119.668 14.6418C119.922 14.9414 119.842 15.4719 119.198 16.7441C118.788 17.5595 116.155 18.1244 113.757 17.0044C108.481 13.7478 111.406 6.28169 119.339 6.79253L119.348 6.7827Z" fill="#00AEEF"/>
<path d="M70.594 12.9444C70.202 13.4971 69.6957 13.9505 69.1129 14.2707C64.4107 16.3533 66.8323 8.78404 68.4969 8.96086C69.0722 8.99242 69.6153 9.24796 70.0191 9.67711C70.423 10.1063 70.6583 10.6779 70.6787 11.2793C70.6881 11.8357 70.6599 12.3922 70.594 12.9444ZM68.9906 6.83891C67.8339 6.96171 67.7163 6.25439 67.5799 5.24253C67.4949 4.88886 67.2892 4.57974 67.0016 4.37312C66.7155 4.16325 66.3668 4.0674 66.0188 4.10297C65.6705 4.14226 65.3462 4.30729 65.1019 4.5696C64.8609 4.83644 64.7206 5.18542 64.7069 5.55198C64.5026 7.38166 63.7392 9.09381 62.5298 10.4344C62.1183 10.8717 61.7684 11.3678 61.4906 11.908C61.3959 12.0501 61.3572 12.2248 61.3826 12.3958C61.408 12.5669 61.4955 12.7212 61.627 12.8266C61.6917 12.8818 61.7682 12.9201 61.8501 12.938C61.9319 12.956 62.0167 12.9531 62.0972 12.9297C62.1768 12.9103 62.2509 12.8716 62.3135 12.8167C62.3764 12.7634 62.4249 12.694 62.4546 12.6153C62.6427 12.2764 63.1881 11.5003 63.6301 11.633C64.3825 11.8933 62.9483 18.8535 62.7649 20.1994C62.4734 22.5178 62.5439 22.4638 64.754 22.4638C67.5753 22.4638 64.2508 17.3652 67.4436 17.3652C70.3825 17.3652 72.5313 16.093 73.5329 13.2441C74.1912 9.89413 73.7821 6.81926 68.9859 6.85856L68.9906 6.83891Z" fill="#00AEEF"/>
<path d="M82.9969 7.70198C78.4922 4.39625 72.2148 10.4477 75.6991 15.9147C77.2838 17.8795 80.533 18.5328 82.4891 17.1525C83.1192 16.6908 83.9891 16.0375 83.5941 15.0994C83.1709 14.0728 82.1834 14.392 81.4687 14.7653C78.779 16.622 76.127 12.8006 78.5251 12.4616C79.837 12.2701 81.1772 12.4616 82.4891 12.4273C85.4138 12.3536 84.5956 8.87102 82.9875 7.70198H82.9969ZM79.8182 8.97908C80.2446 8.97844 80.655 9.14877 80.9648 9.45495C81.2745 9.76112 81.4599 10.1798 81.4828 10.6246H78.1678C78.183 10.1812 78.3635 9.76169 78.6709 9.45554C78.9753 9.15556 79.3763 8.98557 79.7947 8.97908H79.8182Z" fill="#00AEEF"/>
<path d="M125.389 17.5562C120.15 16.3037 124.415 10.262 122.647 9.15189C122.238 8.9063 120.644 9.75606 120.964 7.82567C121.119 6.94152 121.782 6.88749 122.375 6.94152C124.02 7.17238 123.649 6.07702 123.785 5.22726C123.808 4.98784 123.894 4.75981 124.034 4.56906C124.458 4.02384 125.243 4.26943 125.84 4.20066C126.724 4.0926 126.724 4.78519 126.724 5.43847C126.075 7.09871 127.223 6.91205 127.914 6.96117C128.53 6.99555 128.784 7.22151 128.798 7.84532V7.8797C128.805 8.12734 128.747 8.3723 128.629 8.58702C128.125 9.36802 127.556 8.87191 126.893 9.02909C126.23 9.18628 125.803 9.84447 125.638 10.6549C124.697 15.6062 126.085 15.2083 127.1 14.5845C128.041 14.0344 128.295 14.0933 128.172 15.5227C128.157 15.8923 128.065 16.2541 127.904 16.5836C127.669 16.8655 127.381 17.0944 127.058 17.2566C126.738 17.4227 126.389 17.518 126.033 17.5366C125.812 17.5562 125.591 17.5562 125.37 17.5366L125.389 17.5562Z" fill="#00AEEF"/>
<path d="M109.037 7.70198C104.528 4.39625 98.2224 10.4477 101.74 15.9147C103.32 17.8795 106.569 18.5328 108.506 17.1525C109.15 16.6908 110.006 16.0375 109.625 15.0994C109.202 14.0728 108.177 14.392 107.5 14.7653C104.81 16.622 102.139 12.8006 104.556 12.4616C105.868 12.2701 107.194 12.4616 108.52 12.4273C111.431 12.3536 110.627 8.87102 109.019 7.70198H109.037ZM105.859 8.97908C106.286 8.9826 106.696 9.15861 107.001 9.47028C107.31 9.77592 107.492 10.1954 107.509 10.6393H104.194C104.217 10.1945 104.403 9.77585 104.712 9.46968C105.022 9.16351 105.432 8.99318 105.859 8.99382V8.97908Z" fill="#00AEEF"/>
<path d="M54.8558 13.9096L53.069 8.83562H52.1286C51.9922 8.83562 51.9217 8.74721 51.9405 8.57529L52.0063 7.67149C52.0063 7.51431 52.091 7.41116 52.232 7.41116H55.2555C55.4107 7.41116 55.4765 7.49957 55.4624 7.67149L55.3778 8.59002C55.3847 8.62237 55.3847 8.65591 55.3778 8.68826C55.3677 8.72061 55.3517 8.75063 55.3308 8.77668C55.3109 8.80154 55.2849 8.82023 55.2555 8.83071C55.2245 8.8376 55.1925 8.8376 55.1615 8.83071H54.4797L56.4546 14.2338H56.4875L58.6458 8.83071H57.8981C57.7618 8.83071 57.7101 8.74229 57.7101 8.57038L57.7806 7.66658C57.7806 7.5094 57.8652 7.40625 58.0016 7.40625H61.0956C61.2179 7.40625 61.2837 7.49466 61.2649 7.66658L61.2132 8.57038C61.2132 8.72756 61.1286 8.83071 60.9922 8.83071H60.0518L55.8198 21.1105H56.4452C56.5674 21.1105 56.6333 21.1793 56.6145 21.3414L56.5674 22.1912C56.5674 22.368 56.4781 22.4368 56.3417 22.4368H53.3982C53.2618 22.4368 53.2148 22.368 53.2148 22.1912L53.2806 21.3414C53.2734 21.3124 53.2734 21.282 53.2806 21.253C53.2871 21.223 53.3018 21.1957 53.3229 21.1744C53.3413 21.1511 53.3658 21.134 53.3935 21.1253C53.4212 21.1178 53.4503 21.1178 53.4781 21.1253H54.4656C54.9358 19.4798 55.8433 16.5916 55.8292 16.3853C55.8292 16.3853 54.9546 14.2093 54.8417 13.8851L54.8558 13.9096Z" fill="#919191"/>
<path d="M50.8676 17.7575H48.0463C47.9288 17.7575 47.8582 17.6691 47.8582 17.4972V16.6523C47.8582 16.4755 47.9288 16.392 48.0463 16.392H48.761V11.6323C48.8002 11.0035 48.6612 10.3765 48.3613 9.82965C48.2293 9.61934 48.0459 9.44975 47.83 9.33845C47.6153 9.22897 47.3774 9.17827 47.1388 9.1911C46.7334 9.2053 46.341 9.34366 46.0103 9.58896C45.681 9.83425 45.429 10.1762 45.2861 10.5714C45.3377 10.8331 45.3614 11.0999 45.3567 11.3671V16.4165H46.1937C46.3112 16.4165 46.3817 16.505 46.3817 16.6621V17.5316C46.3817 17.6937 46.3112 17.7624 46.1937 17.7624H43.3394C43.2031 17.7624 43.1325 17.6887 43.1325 17.5316V16.6621C43.1325 16.505 43.2031 16.4165 43.3394 16.4165H44.1388V11.6372C44.1686 11.0055 44.0198 10.3786 43.7109 9.83456C43.5754 9.62558 43.3909 9.45644 43.1748 9.34337C42.9599 9.23398 42.7225 9.18168 42.4836 9.1911C42.1532 9.16733 41.824 9.25329 41.5432 9.4367C41.3714 9.56749 41.2138 9.71736 41.073 9.88368C40.9649 9.99517 40.873 10.1226 40.8003 10.2619C40.6809 10.4727 40.5772 10.6928 40.4899 10.9201V16.4165H41.2423C41.3598 16.4165 41.4115 16.505 41.4115 16.6671V17.5316C41.4115 17.6937 41.3598 17.7624 41.2423 17.7624H38.421C38.2893 17.7624 38.2188 17.6937 38.2188 17.5316V16.6621C38.2188 16.505 38.2846 16.4165 38.421 16.4165H39.2391V9.22057H38.421C38.2893 9.22057 38.2188 9.13215 38.2188 8.97497V8.13012C38.2188 7.95329 38.2846 7.87961 38.421 7.87961H39.8833C39.9502 7.86731 40.0186 7.86731 40.0855 7.87961C40.1509 7.89804 40.2108 7.93353 40.2595 7.98276C40.3456 8.12982 40.382 8.30275 40.3629 8.47396L40.33 9.45634H40.3818C40.5644 8.93823 40.8962 8.49193 41.3315 8.1788C41.7668 7.86567 42.2843 7.70109 42.8128 7.70769C43.3089 7.67925 43.7996 7.82819 44.2038 8.12997C44.6081 8.43175 44.9019 8.86838 45.0369 9.36793C45.2429 8.87631 45.5808 8.45748 46.0097 8.16201C46.4385 7.86653 46.9401 7.70704 47.4538 7.70278C47.8157 7.68877 48.1754 7.76628 48.5024 7.92873C48.8276 8.09137 49.1088 8.33617 49.3206 8.64096C49.8044 9.39204 50.0435 10.286 50.0024 11.1903V16.4165H50.9099C51.0275 16.4165 51.0792 16.505 51.0792 16.6769V17.5217C51.0792 17.6986 51.0275 17.7821 50.9099 17.7821L50.8676 17.7575Z" fill="#919191"/>
<path d="M140.97 11.5932C140.97 14.7221 139.122 16.7753 136.461 16.7753C135.794 16.8091 135.131 16.6475 134.547 16.3087C133.956 15.9786 133.466 15.4794 133.136 14.8695H133.094C133.136 15.4638 133.155 15.7094 133.155 16.176V19.4621H134.434C134.467 19.4548 134.5 19.4548 134.533 19.4621C134.562 19.4754 134.589 19.4937 134.613 19.5161C134.635 19.5397 134.651 19.5683 134.66 19.5997C134.669 19.6317 134.669 19.6658 134.66 19.6979V20.582C134.669 20.614 134.669 20.6483 134.66 20.6803C134.653 20.7126 134.637 20.7418 134.613 20.7638C134.59 20.7879 134.563 20.8064 134.533 20.8178C134.5 20.8251 134.467 20.8251 134.434 20.8178H130.428C130.397 20.8277 130.364 20.8277 130.334 20.8178C130.304 20.8083 130.276 20.7915 130.254 20.7687C130.232 20.744 130.215 20.7158 130.202 20.6852C130.195 20.6529 130.195 20.6193 130.202 20.587V19.7028C130.193 19.6708 130.193 19.6366 130.202 19.6046C130.213 19.5742 130.229 19.5459 130.249 19.5211C130.274 19.4974 130.303 19.4791 130.334 19.467C130.365 19.4595 130.397 19.4595 130.428 19.467H131.509V7.91908H130.409C130.378 7.92423 130.346 7.92423 130.315 7.91908C130.284 7.90997 130.256 7.89112 130.235 7.86505C130.211 7.84246 130.193 7.81365 130.183 7.78155C130.178 7.749 130.178 7.71585 130.183 7.68331V6.8139C130.179 6.78135 130.179 6.74821 130.183 6.71566C130.193 6.68355 130.211 6.65475 130.235 6.63216C130.257 6.60804 130.285 6.58956 130.315 6.57813C130.348 6.57082 130.381 6.57082 130.414 6.57813H132.84C132.873 6.57082 132.906 6.57082 132.939 6.57813C132.969 6.58956 132.996 6.60804 133.019 6.63216C133.041 6.65602 133.059 6.68443 133.071 6.71566C133.078 6.74797 133.078 6.78159 133.071 6.8139C133.071 7.3493 133.028 7.89944 133.009 8.43484H133.071C133.466 7.45245 134.683 6.42586 136.555 6.42586C139.197 6.41112 140.97 8.52325 140.97 11.5932ZM139.32 11.5932C139.32 9.2453 137.956 7.84541 136.31 7.84541C134.665 7.84541 133.16 9.17653 133.16 11.5932C133.16 13.8871 134.571 15.341 136.31 15.341C138.05 15.341 139.315 13.8281 139.315 11.5932H139.32Z" fill="#919191"/>
<path d="M151.996 15.5038V16.388C152.003 16.422 152.003 16.4571 151.996 16.4911C151.986 16.5247 151.968 16.5552 151.944 16.5796C151.918 16.6047 151.888 16.6247 151.855 16.6385C151.822 16.6458 151.789 16.6458 151.756 16.6385H150.063C149.952 16.6443 149.84 16.6276 149.734 16.5894C149.63 16.5502 149.536 16.4883 149.457 16.4076C149.375 16.3263 149.311 16.2274 149.269 16.1178C149.23 16.0095 149.213 15.8943 149.217 15.7789V14.9635H149.175C148.788 15.5402 148.269 16.0063 147.665 16.3192C147.063 16.6334 146.396 16.7869 145.723 16.7662C143.842 16.7662 142.535 15.6807 142.535 13.9418C142.535 11.8592 144.251 10.8473 146.795 10.8473H149.019V10.3267C149.019 8.85308 148.192 7.82649 146.48 7.82649C145.562 7.80722 144.664 8.11177 143.932 8.69099C143.902 8.72107 143.864 8.74153 143.824 8.74993C143.784 8.76221 143.741 8.76221 143.701 8.74993C143.661 8.74487 143.622 8.72971 143.588 8.70573C143.551 8.68569 143.52 8.65503 143.499 8.61731L143.057 7.94929C143.037 7.91841 143.024 7.8831 143.019 7.84614C143.01 7.81079 143.01 7.77342 143.019 7.73808C143.024 7.70111 143.037 7.6658 143.057 7.63493C143.079 7.60536 143.106 7.58037 143.137 7.56125C144.102 6.76025 145.31 6.34567 146.541 6.3922C149.363 6.3922 150.661 7.96893 150.661 10.3217V15.2337H151.742C151.776 15.2263 151.811 15.2263 151.845 15.2337C151.878 15.2439 151.907 15.2625 151.93 15.2877C151.957 15.3094 151.978 15.338 151.991 15.3707C152.004 15.4034 152.009 15.4391 152.005 15.4744L151.996 15.5038ZM149.024 13.5636V12.149H146.739C145.234 12.149 144.176 12.7433 144.176 13.8485C144.176 14.7916 144.905 15.3614 145.987 15.3221C146.591 15.2889 147.18 15.1107 147.708 14.8014C148.235 14.4959 148.686 14.0651 149.024 13.544V13.5636Z" fill="#919191"/>
<path d="M163.736 11.5932C163.736 14.7221 161.883 16.7753 159.227 16.7753C158.563 16.8033 157.906 16.6403 157.325 16.3042C156.745 15.9681 156.264 15.4718 155.935 14.8695H155.883C155.921 15.4638 155.944 15.7094 155.944 16.176V19.4621H157.223C157.256 19.4548 157.29 19.4548 157.322 19.4621C157.351 19.4754 157.378 19.4937 157.402 19.5161C157.424 19.5397 157.44 19.5683 157.449 19.5997C157.458 19.6317 157.458 19.6658 157.449 19.6979V20.582C157.459 20.614 157.459 20.6483 157.449 20.6803C157.442 20.7126 157.426 20.7418 157.402 20.7638C157.38 20.7879 157.352 20.8064 157.322 20.8178C157.29 20.8251 157.256 20.8251 157.223 20.8178H153.217C153.187 20.8277 153.154 20.8277 153.123 20.8178C153.093 20.8093 153.065 20.7923 153.043 20.7687C153.02 20.7453 153.002 20.7168 152.991 20.6852C152.984 20.6529 152.984 20.6193 152.991 20.587V19.7028C152.982 19.6708 152.982 19.6366 152.991 19.6046C153.001 19.5732 153.017 19.5446 153.038 19.5211C153.063 19.4974 153.092 19.4791 153.123 19.467C153.154 19.4595 153.186 19.4595 153.217 19.467H154.317V7.91908H153.217C153.186 7.92423 153.154 7.92423 153.123 7.91908C153.093 7.90726 153.066 7.88888 153.043 7.86516C153.02 7.84144 153.003 7.81294 152.991 7.78155C152.984 7.74924 152.984 7.71562 152.991 7.68331V6.8139C152.982 6.78189 152.982 6.74767 152.991 6.71566C153.001 6.68432 153.017 6.6557 153.038 6.63216C153.062 6.60692 153.091 6.58832 153.123 6.57813C153.154 6.57059 153.186 6.57059 153.217 6.57813H155.62C155.651 6.57108 155.683 6.57108 155.714 6.57813C155.744 6.58995 155.771 6.60833 155.794 6.63205C155.817 6.65577 155.834 6.68427 155.846 6.71566C155.853 6.74797 155.853 6.78159 155.846 6.8139C155.846 7.3493 155.808 7.89944 155.785 8.43484H155.822C156.222 7.45245 157.44 6.42586 159.311 6.42586C161.963 6.41112 163.736 8.52325 163.736 11.5932ZM162.081 11.5932C162.081 9.2453 160.722 7.84541 159.076 7.84541C157.43 7.84541 155.921 9.17653 155.921 11.5932C155.921 13.8871 157.332 15.341 159.076 15.341C160.821 15.341 162.09 13.8281 162.09 11.5932H162.081Z" fill="#919191"/>
<path d="M174.083 12.0659H167.096C167.12 12.948 167.475 13.7849 168.083 14.3973C168.691 15.0098 169.505 15.3489 170.35 15.3421C170.863 15.3513 171.371 15.2441 171.84 15.0278C172.308 14.8111 172.727 14.493 173.068 14.0945C173.089 14.0651 173.116 14.0415 173.148 14.0257C173.179 14.0064 173.215 13.9962 173.251 13.9963C173.285 13.9892 173.32 13.9892 173.354 13.9963C173.388 14.0064 173.417 14.0269 173.439 14.0552L173.989 14.5857C174.017 14.6051 174.041 14.6302 174.06 14.6594C174.078 14.6891 174.089 14.7227 174.093 14.7576C174.1 14.7916 174.1 14.8268 174.093 14.8607C174.083 14.894 174.069 14.9255 174.05 14.9541C173.603 15.5479 173.026 16.0212 172.367 16.3343C171.71 16.6458 170.991 16.7906 170.27 16.7568C167.449 16.7568 165.422 14.792 165.422 11.5747C165.422 8.27385 167.773 6.39258 169.992 6.39258C172.814 6.39258 174.342 8.38191 174.342 11.7957C174.349 11.8297 174.349 11.8648 174.342 11.8989C174.329 11.9318 174.31 11.9618 174.285 11.9873C174.26 12.0127 174.23 12.0313 174.196 12.0413C174.164 12.0488 174.13 12.0488 174.097 12.0413L174.083 12.0659ZM172.673 10.6954C172.593 9.07449 171.648 7.84651 170.035 7.84651C168.624 7.84651 167.449 8.8289 167.138 10.6954H172.673Z" fill="#919191"/>
<path d="M175.877 16.3867V15.5025C175.871 15.4701 175.871 15.4366 175.877 15.4043C175.888 15.3727 175.906 15.3441 175.929 15.3208C175.952 15.298 175.979 15.2812 176.009 15.2716C176.04 15.2621 176.072 15.2621 176.103 15.2716H177.208V7.90375H176.098H176.004C175.974 7.89232 175.947 7.87384 175.924 7.84972C175.903 7.82558 175.887 7.79715 175.877 7.76622C175.87 7.7339 175.87 7.70029 175.877 7.66798V6.79856C175.87 6.76625 175.87 6.73264 175.877 6.70033C175.887 6.66822 175.905 6.63942 175.929 6.61683C175.951 6.59271 175.979 6.57423 176.009 6.56279C176.04 6.55559 176.072 6.55559 176.103 6.56279H178.454C178.487 6.55549 178.52 6.55549 178.553 6.56279C178.584 6.57311 178.613 6.58981 178.637 6.61191C178.665 6.63464 178.684 6.66551 178.694 6.70033C178.701 6.73432 178.701 6.76948 178.694 6.80348V9.09735H178.75C178.811 8.81246 179.559 6.51367 182.456 6.51367C182.521 6.51611 182.583 6.54433 182.629 6.59263C182.676 6.64093 182.703 6.70574 182.705 6.77401V7.96269C182.703 8.03096 182.676 8.09577 182.629 8.14407C182.583 8.19238 182.521 8.22059 182.456 8.22303H182.042C180.189 8.22303 178.868 10.0846 178.868 11.9463V15.2667H180.702C180.734 15.2568 180.768 15.2568 180.8 15.2667C180.833 15.2769 180.862 15.2955 180.885 15.3208C180.91 15.344 180.929 15.3725 180.942 15.4043C180.949 15.4383 180.949 15.4734 180.942 15.5074V16.3916C180.951 16.4269 180.951 16.4642 180.942 16.4996C180.931 16.5342 180.913 16.566 180.89 16.593C180.865 16.6184 180.834 16.637 180.8 16.647C180.766 16.6543 180.731 16.6543 180.697 16.647H176.098C176.067 16.6521 176.035 16.6521 176.004 16.647C175.973 16.6332 175.944 16.6132 175.92 16.588C175.897 16.5634 175.881 16.5329 175.873 16.4996C175.865 16.4673 175.865 16.4337 175.873 16.4014L175.877 16.3867Z" fill="#919191"/>
<path d="M96.6873 5.25645C97.5243 2.58436 99.8378 0.95851 102.424 1.99984C103.75 2.54998 103.717 4.947 101.897 4.38704C100.703 4.01864 100.04 4.69158 99.4804 5.59537C99.0102 6.31743 98.6999 7.25561 100.209 7.15737C100.825 7.2114 101.093 7.70259 101.112 8.35588C101.122 8.48505 101.107 8.61492 101.068 8.738C101.029 8.86108 100.967 8.97494 100.886 9.07302C100.807 9.17226 100.71 9.25415 100.6 9.31399C100.49 9.37384 100.37 9.41047 100.247 9.42177C99.8434 9.44263 99.4607 9.61523 99.1695 9.90772C98.8782 10.2002 98.6981 10.5929 98.6623 11.0132C98.0651 14.9035 97.4914 18.7986 96.9084 22.6938C96.526 23.0727 96.0244 23.2928 95.4977 23.3127C94.9724 23.2863 94.4728 23.0672 94.087 22.6938C94.1388 19.1719 94.8864 15.7238 95.3378 12.256C95.4084 11.809 95.2673 10.2175 94.8112 9.98664C94.2328 9.66737 93.9084 10.1143 93.6215 10.5073C92.9867 11.3374 92.3943 11.3079 91.7642 10.5466C90.457 10.0849 89.5353 10.7922 89.3002 12.5458C89.131 13.7099 88.9899 14.8887 88.924 16.0676C88.8535 17.5412 88.0588 18.0815 86.7799 17.9734C85.4209 17.8556 85.7971 16.7209 85.8629 15.8908C86.0698 13.592 86.0839 10.6792 86.493 8.405C86.8128 6.65635 87.2595 6.24375 88.9099 6.70547C90.7908 8.20852 90.866 8.08572 91.8488 7.22613C92.098 6.99527 92.7892 7.28017 93.2595 7.36858C95.3519 7.79592 96.0149 7.36858 96.6638 5.26627L96.6873 5.25645Z" fill="white"/>
<path d="M119.471 7.08394C120.642 7.17236 120.609 11.8583 118.776 10.1441C117.736 9.16169 115.879 9.62341 114.826 10.8858C113.772 12.1481 113.603 14.054 115.423 14.8153C116.424 15.2181 119.062 14.1227 119.791 14.9381C120.045 15.2378 119.965 15.7682 119.321 17.0453C118.912 17.8558 116.274 18.4256 113.876 17.3057C108.614 14.0491 111.525 6.57801 119.457 7.09376L119.471 7.08394Z" fill="white"/>
<path d="M70.7167 13.2576C70.3259 13.8116 69.8194 14.2652 69.2355 14.5838C64.5333 16.6665 66.9549 9.11192 68.6242 9.27401C69.1996 9.30736 69.7426 9.56296 70.1477 9.99115C70.5508 10.42 70.7842 10.9918 70.8013 11.5924C70.8153 12.149 70.787 12.7058 70.7167 13.2576ZM69.1179 7.15206C67.9612 7.27486 67.8389 6.56263 67.7073 5.55568C67.6432 5.29069 67.5122 5.04851 67.328 4.85442C67.1437 4.66032 66.913 4.52141 66.6599 4.45217C66.4068 4.38293 66.1405 4.3859 65.8889 4.46077C65.6372 4.53564 65.4094 4.67967 65.2292 4.87784C64.989 5.14516 64.8488 5.49385 64.8342 5.86022C64.627 7.68903 63.864 9.40026 62.6571 10.7427C62.2485 11.1802 61.9018 11.6764 61.6274 12.2163C61.5326 12.3583 61.4939 12.533 61.5193 12.7041C61.5447 12.8751 61.6323 13.0294 61.7637 13.1348C61.8289 13.1874 61.9043 13.2243 61.9847 13.2428C62.0638 13.2599 62.1454 13.2599 62.2245 13.2428C62.3027 13.2234 62.3752 13.1846 62.4361 13.1299C62.4981 13.0745 62.5478 13.0058 62.5819 12.9285C62.7653 12.5896 63.3107 11.8135 63.7528 11.9461C64.5051 12.1917 63.0756 19.1666 62.8876 20.5125C62.6007 22.8309 62.6665 22.772 64.8907 22.772C67.712 22.772 64.3875 17.6783 67.5803 17.6783C70.5192 17.6783 72.6634 16.4061 73.6696 13.5572C74.3326 10.2122 73.9189 7.13241 69.1273 7.17171L69.1179 7.15206Z" fill="white"/>
<path d="M83.1007 8.0169C78.5914 4.71117 72.314 10.7577 75.803 16.2296C77.3829 18.1944 80.6321 18.8477 82.5882 17.4674C83.2183 17.0057 84.0929 16.3524 83.6932 15.4143C83.27 14.3877 82.2826 14.7069 81.5678 15.0753C78.8782 16.937 76.2262 13.1106 78.6243 12.7766C79.9362 12.585 81.2763 12.7766 82.5882 12.7422C85.513 12.6734 84.6995 9.18594 83.0866 8.0169H83.1007ZM79.9268 9.28908C80.3545 9.29727 80.7639 9.47251 81.0741 9.78028C81.3815 10.0858 81.5664 10.5019 81.5913 10.9444H78.2669C78.2872 10.5013 78.4689 10.0831 78.7747 9.77537C79.0849 9.46437 79.4969 9.2887 79.9268 9.28417V9.28908Z" fill="white"/>
<path d="M125.512 17.8902C120.269 16.6327 124.539 10.5812 122.757 9.49571C122.348 9.25011 120.754 10.0999 121.073 8.16949C121.229 7.28534 121.892 7.23131 122.484 7.28534C124.134 7.5162 123.758 6.42084 123.895 5.57107C123.922 5.33278 124.007 5.10592 124.144 4.91288C124.572 4.36765 125.357 4.61325 125.949 4.54448C126.834 4.43642 126.833 5.12409 126.833 5.78229C126.189 7.44252 127.337 7.25587 128.028 7.30008C128.639 7.33937 128.893 7.56041 128.912 8.18913V8.22352C128.918 8.47159 128.858 8.71652 128.738 8.93084C128.239 9.71183 127.67 9.21573 127.003 9.37291C126.335 9.53009 125.917 10.1883 125.766 11.0037C124.826 15.95 126.203 15.5472 127.228 14.9332C128.169 14.3831 128.418 14.442 128.296 15.8714C128.283 16.2414 128.191 16.6037 128.028 16.9324C127.793 17.213 127.507 17.4418 127.186 17.6053C126.864 17.7702 126.514 17.867 126.156 17.8902C125.936 17.9049 125.714 17.9049 125.493 17.8902H125.512Z" fill="white"/>
<path d="M109.159 8.0169C104.649 4.71117 98.3435 10.7577 101.861 16.2296C103.445 18.1944 106.695 18.8477 108.627 17.4674C109.271 17.0057 110.127 16.3524 109.746 15.4143C109.323 14.3877 108.303 14.7069 107.621 15.0753C104.931 16.937 102.265 13.1106 104.677 12.7766C105.989 12.585 107.315 12.7766 108.641 12.7422C111.552 12.6734 110.753 9.18594 109.144 8.0169H109.159ZM105.975 9.28908C106.402 9.2926 106.812 9.46861 107.118 9.78028C107.427 10.0853 107.61 10.5051 107.626 10.9493H104.311C104.336 10.5068 104.52 10.0907 104.828 9.78519C105.138 9.4766 105.547 9.30122 105.975 9.294V9.28908Z" fill="white"/>
<path d="M54.9808 14.2102L53.1939 9.15096H52.277C52.1407 9.15096 52.0701 9.06255 52.0889 8.90045L52.1595 8.00157C52.1595 7.83948 52.2441 7.75106 52.3805 7.75106H55.3805C55.5356 7.75106 55.6062 7.83948 55.5874 8.00157L55.5215 8.90045C55.5284 8.9328 55.5284 8.96634 55.5215 8.99869C55.5104 9.02909 55.4945 9.05732 55.4745 9.0822C55.4513 9.10296 55.4261 9.12107 55.3993 9.13623C55.3681 9.141 55.3364 9.141 55.3052 9.13623H54.6187L56.5889 14.5393H56.6265L58.7848 9.13623H58.0325C57.8961 9.13623 57.8444 9.04781 57.8444 8.88572L57.9102 7.98683C57.9102 7.82474 57.9996 7.73633 58.1312 7.73633H61.23C61.3475 7.73633 61.4181 7.82474 61.3992 7.98683L61.3475 8.88572C61.3475 9.04781 61.2629 9.13623 61.1265 9.13623H60.1861L55.9541 21.4161H56.5842C56.7065 21.4161 56.7723 21.4897 56.7535 21.6469L56.7018 22.4967C56.7018 22.6735 56.6171 22.757 56.4855 22.757H53.5419C53.4008 22.757 53.3538 22.6882 53.3538 22.4967L53.4196 21.6469C53.415 21.6176 53.415 21.5878 53.4196 21.5585C53.4289 21.5287 53.4451 21.5017 53.4667 21.4799C53.4863 21.4581 53.5104 21.4413 53.5372 21.4308C53.5652 21.4257 53.5938 21.4257 53.6218 21.4308H54.6093C55.0795 19.7853 55.987 16.8971 55.9682 16.6908C55.9682 16.6908 55.103 14.5148 54.9808 14.1955V14.2102Z" fill="white"/>
<path d="M50.9793 18.0811H48.158C48.0404 18.0811 47.9699 17.9927 47.9699 17.8159V16.9759C47.9699 16.7991 48.0404 16.7156 48.158 16.7156H48.8774V11.9461C48.9122 11.3142 48.7683 10.6856 48.4636 10.1385C48.3301 9.93109 48.1471 9.76357 47.9327 9.65246C47.7184 9.54135 47.48 9.49049 47.2411 9.50489C46.8354 9.51717 46.4425 9.65553 46.1125 9.90226C45.7825 10.149 45.5304 10.4929 45.3884 10.89C45.4411 11.1468 45.4679 11.4085 45.4683 11.671V16.7254H46.3194C46.437 16.7254 46.5075 16.8138 46.5075 16.9858V17.8552C46.5075 18.0173 46.437 18.086 46.3194 18.086H43.4605C43.3242 18.086 43.2536 18.0123 43.2536 17.8552V16.971C43.2536 16.8138 43.3242 16.7107 43.4605 16.7107H44.2599V11.9461C44.289 11.3135 44.142 10.6857 43.8367 10.1385C43.6977 9.93331 43.5117 9.76778 43.2957 9.65708C43.0796 9.54638 42.8404 9.49405 42.6 9.50489C42.2695 9.48009 41.94 9.56613 41.6596 9.75048C41.49 9.88223 41.3326 10.0302 41.1894 10.1926C41.0828 10.3036 40.9911 10.4292 40.9166 10.5659C40.8004 10.7752 40.6997 10.9936 40.6157 11.2191V16.7254H41.368C41.4856 16.7254 41.5373 16.8138 41.5373 16.9858V17.8503C41.5373 18.0123 41.4856 18.0811 41.368 18.0811H38.5467C38.4057 18.0811 38.3398 18.0123 38.3398 17.8503V16.971C38.3398 16.8138 38.4057 16.7107 38.5467 16.7107H39.3602V9.53927H38.5467C38.4057 9.53927 38.3398 9.45085 38.3398 9.28876V8.439C38.3398 8.26217 38.4057 8.17867 38.5467 8.17867H40.0091C40.0742 8.16406 40.1415 8.16406 40.2066 8.17867C40.2699 8.20223 40.3288 8.23714 40.3806 8.28182C40.4666 8.42887 40.5031 8.6018 40.484 8.77301L40.4464 9.78487H40.4981C40.6775 9.26642 41.006 8.81862 41.4386 8.50285C41.8727 8.18494 42.3896 8.01353 42.9198 8.01166C43.4175 7.98142 43.9101 8.13017 44.3156 8.43314C44.7212 8.7361 45.0151 9.17501 45.1486 9.6768C45.352 9.1841 45.6886 8.76414 46.1172 8.46847C46.5481 8.17434 47.0508 8.01577 47.5655 8.01166C47.9276 7.99483 48.288 8.07248 48.6141 8.23761C48.9414 8.39885 49.2245 8.64383 49.437 8.94984C49.9217 9.70272 50.1638 10.5975 50.1282 11.504V16.6861H51.0216C51.1392 16.6861 51.1909 16.7745 51.1909 16.9465V17.7864C51.1909 17.9632 51.1392 18.0467 51.0216 18.0467L50.9793 18.0811Z" fill="white"/>
<path d="M141.097 11.9077C141.097 15.0317 139.249 17.0897 136.587 17.0897C135.92 17.1136 135.259 16.9436 134.678 16.5986C134.088 16.2669 133.599 15.7681 133.267 15.1594H133.225C133.267 15.7537 133.286 15.9993 133.286 16.461V19.7471H134.565C134.596 19.7396 134.628 19.7396 134.659 19.7471C134.691 19.7573 134.721 19.7759 134.744 19.8011C134.765 19.8258 134.783 19.854 134.796 19.8846C134.803 19.917 134.803 19.9505 134.796 19.9829V20.867C134.803 20.8993 134.803 20.9329 134.796 20.9653C134.784 20.9965 134.766 21.0249 134.744 21.0488C134.721 21.074 134.691 21.0926 134.659 21.1028C134.628 21.1103 134.596 21.1103 134.565 21.1028H130.559C130.528 21.1079 130.496 21.1079 130.465 21.1028C130.435 21.0924 130.408 21.0757 130.385 21.0537C130.362 21.0303 130.344 21.0018 130.333 20.9702C130.326 20.9378 130.326 20.9043 130.333 20.8719V19.9878C130.326 19.9554 130.326 19.9219 130.333 19.8896C130.345 19.8582 130.362 19.8297 130.385 19.8059C130.408 19.7822 130.435 19.7638 130.465 19.752C130.498 19.7447 130.531 19.7447 130.564 19.752H131.664V8.24336H130.564C130.533 8.24851 130.501 8.24851 130.47 8.24336C130.439 8.23302 130.411 8.21438 130.39 8.18933C130.367 8.16596 130.349 8.1374 130.338 8.10583C130.331 8.07352 130.331 8.0399 130.338 8.00759V7.12835C130.331 7.09604 130.331 7.06243 130.338 7.03011C130.348 6.99653 130.366 6.96609 130.39 6.9417C130.414 6.92076 130.441 6.90415 130.47 6.89258C130.502 6.88528 130.536 6.88528 130.568 6.89258H132.971C133.002 6.88553 133.034 6.88553 133.065 6.89258C133.094 6.90415 133.121 6.92076 133.145 6.9417C133.169 6.96609 133.187 6.99653 133.197 7.03011C133.204 7.06243 133.204 7.09604 133.197 7.12835C133.197 7.65884 133.155 8.21389 133.136 8.74438H133.197C133.587 7.76199 134.81 6.74031 136.681 6.74031C139.324 6.72558 141.097 8.8328 141.097 11.9077ZM139.446 11.9077C139.446 9.55976 138.087 8.15986 136.437 8.15986C134.786 8.15986 133.286 9.48117 133.286 11.9077C133.286 14.2015 134.697 15.6555 136.432 15.6555C138.167 15.6555 139.427 14.1426 139.427 11.9077H139.446Z" fill="white"/>
<path d="M152.117 15.8218V16.701C152.126 16.733 152.126 16.7672 152.117 16.7992C152.107 16.8324 152.087 16.8615 152.061 16.8827C152.038 16.9069 152.011 16.9253 151.981 16.9368C151.948 16.9441 151.914 16.9441 151.882 16.9368H150.189C150.077 16.9425 149.966 16.9259 149.86 16.8876C149.756 16.8474 149.661 16.7836 149.583 16.701C149.501 16.6221 149.438 16.5246 149.399 16.4161C149.357 16.3086 149.338 16.1931 149.343 16.0772V15.2864H149.296C148.905 15.8582 148.387 16.3218 147.786 16.6371C147.186 16.9524 146.521 17.1076 145.849 17.089C143.968 17.089 142.656 16.0035 142.656 14.2598C142.656 12.1771 144.373 11.1702 146.931 11.1702H149.155V10.6495C149.155 9.17591 148.332 8.14932 146.615 8.14932C145.695 8.11929 144.792 8.41915 144.057 8.99908C144.026 9.02715 143.989 9.04732 143.949 9.05803C143.909 9.07003 143.867 9.07003 143.827 9.05803C143.785 9.05299 143.745 9.03786 143.71 9.01382C143.673 8.99245 143.643 8.96208 143.62 8.92541L143.188 8.27212C143.168 8.24124 143.155 8.20593 143.15 8.16897C143.145 8.13311 143.145 8.09676 143.15 8.0609C143.158 8.02424 143.173 7.98935 143.192 7.95775C143.213 7.92834 143.238 7.90332 143.268 7.88407C144.233 7.07962 145.443 6.66469 146.677 6.71504C149.498 6.71504 150.791 8.27703 150.791 10.6446V15.5565H151.873C151.905 15.5492 151.939 15.5492 151.971 15.5565C152.003 15.5667 152.033 15.5853 152.056 15.6105C152.079 15.6351 152.098 15.6633 152.112 15.694C152.117 15.7283 152.117 15.763 152.112 15.7972L152.117 15.8218ZM149.145 13.857V12.4423H146.86C145.355 12.4423 144.297 13.0367 144.297 14.1468C144.297 15.085 145.031 15.6597 146.112 15.6204C146.715 15.5871 147.302 15.4088 147.829 15.0995C148.355 14.7903 148.805 14.3583 149.145 13.8373V13.857Z" fill="white"/>
<path d="M163.874 11.9077C163.874 15.0317 162.021 17.0898 159.365 17.0898C158.702 17.1178 158.044 16.9548 157.463 16.6187C156.883 16.2826 156.402 15.7863 156.073 15.184H156.036C156.073 15.7783 156.097 16.0239 156.097 16.4857V19.7717H157.366C157.397 19.7642 157.429 19.7642 157.46 19.7717C157.49 19.7822 157.517 19.7989 157.54 19.8209C157.564 19.8453 157.582 19.8757 157.592 19.9093C157.599 19.9416 157.599 19.9752 157.592 20.0075V20.8868C157.599 20.9191 157.599 20.9527 157.592 20.985C157.582 21.0186 157.564 21.049 157.54 21.0734C157.517 21.0954 157.49 21.1121 157.46 21.1225C157.429 21.1301 157.397 21.1301 157.366 21.1225H153.355C153.324 21.1296 153.292 21.1296 153.261 21.1225C153.233 21.1103 153.207 21.0919 153.186 21.0685C153.163 21.0451 153.145 21.0166 153.134 20.985C153.127 20.9527 153.127 20.9191 153.134 20.8868V20.0075C153.127 19.9752 153.127 19.9416 153.134 19.9093C153.144 19.8772 153.162 19.8484 153.186 19.8258C153.208 19.8017 153.236 19.7832 153.266 19.7717C153.297 19.7647 153.329 19.7647 153.36 19.7717H154.465V8.24344H153.36H153.266C153.237 8.23297 153.211 8.21428 153.191 8.18941C153.168 8.16604 153.15 8.13748 153.139 8.10591C153.132 8.07359 153.132 8.03998 153.139 8.00767V7.12843C153.132 7.09612 153.132 7.0625 153.139 7.03019C153.15 6.99861 153.168 6.97006 153.191 6.94669C153.213 6.9236 153.241 6.90672 153.271 6.89757C153.3 6.89278 153.33 6.89278 153.36 6.89757H155.763C155.797 6.89029 155.832 6.89029 155.866 6.89757C155.898 6.90895 155.927 6.92739 155.951 6.9516C155.975 6.97518 155.994 7.00358 156.007 7.03511C156.014 7.0691 156.014 7.10426 156.007 7.13826C156.007 7.67366 155.965 8.22379 155.946 8.75919H156.007C156.398 7.77681 157.62 6.75021 159.492 6.75021C162.087 6.72565 163.874 8.83287 163.874 11.9077ZM162.224 11.9077C162.224 9.55984 160.86 8.15502 159.214 8.15502C157.568 8.15502 156.054 9.48125 156.054 11.9077C156.054 14.2016 157.465 15.6555 159.21 15.6555C160.954 15.6555 162.205 14.1378 162.205 11.9077H162.224Z" fill="white"/>
<path d="M174.216 12.3804H167.214C167.236 13.2622 167.591 14.0992 168.202 14.7086C168.811 15.3208 169.623 15.6625 170.468 15.6615C170.981 15.6672 171.49 15.5584 171.959 15.3423C172.427 15.1268 172.846 14.8085 173.186 14.409C173.209 14.3794 173.238 14.3559 173.271 14.3402C173.302 14.3253 173.335 14.3154 173.37 14.3108C173.404 14.3033 173.439 14.3033 173.473 14.3108C173.508 14.3208 173.539 14.3413 173.562 14.3697L174.113 14.8904C174.141 14.9098 174.164 14.9349 174.183 14.964C174.199 14.9948 174.21 15.0279 174.216 15.0623C174.223 15.0963 174.223 15.1314 174.216 15.1654C174.21 15.1989 174.197 15.2306 174.178 15.2588C173.731 15.8466 173.157 16.3161 172.504 16.6293C171.85 16.9425 171.135 17.0905 170.417 17.0614C167.624 17.0614 165.578 15.0967 165.578 11.8794C165.578 8.57853 167.929 6.69727 170.144 6.69727C172.965 6.69727 174.498 8.66204 174.498 12.1004C174.503 12.1362 174.503 12.1726 174.498 12.2084C174.484 12.2423 174.465 12.2738 174.442 12.3018C174.417 12.3269 174.389 12.3469 174.357 12.3607C174.323 12.3681 174.288 12.3681 174.254 12.3607L174.216 12.3804ZM172.805 11.0149C172.73 9.39392 171.785 8.16593 170.167 8.16593C168.78 8.16593 167.586 9.14832 167.271 11.0149H172.805Z" fill="white"/>
<path d="M176.001 16.7027V15.8234C175.994 15.7894 175.994 15.7543 176.001 15.7203C176.01 15.6889 176.027 15.6603 176.048 15.6368C176.072 15.6115 176.101 15.5929 176.133 15.5827C176.164 15.5752 176.196 15.5752 176.227 15.5827H177.327V8.24432H176.236C176.205 8.24947 176.174 8.24947 176.142 8.24432C176.112 8.23289 176.085 8.21441 176.062 8.19029C176.041 8.16561 176.023 8.1374 176.011 8.10679C176.004 8.07448 176.004 8.04086 176.011 8.00855V7.12931C176.004 7.097 176.004 7.06339 176.011 7.03108C176.018 6.99748 176.034 6.96671 176.057 6.94236C176.081 6.91801 176.11 6.90108 176.142 6.89354C176.173 6.886 176.206 6.886 176.236 6.89354H178.559C178.59 6.886 178.622 6.886 178.653 6.89354C178.686 6.90374 178.715 6.92234 178.738 6.94757C178.76 6.97087 178.776 6.99958 178.785 7.03108C178.794 7.06308 178.794 7.09731 178.785 7.12931V9.42319H178.856C178.917 9.13338 179.664 6.83951 182.561 6.83951C182.592 6.83214 182.624 6.83214 182.655 6.83951C182.715 6.86913 182.763 6.91946 182.791 6.98196C182.798 7.01429 182.798 7.04786 182.791 7.08019V8.27871C182.798 8.31109 182.798 8.34456 182.791 8.37694C182.777 8.40772 182.758 8.43591 182.735 8.46045C182.712 8.48552 182.685 8.50557 182.655 8.51939C182.624 8.52446 182.592 8.52446 182.561 8.51939H182.147C180.294 8.51939 178.978 10.381 178.978 12.2426V15.5484H180.798C180.83 15.5411 180.864 15.5411 180.896 15.5484C180.927 15.5598 180.954 15.5783 180.976 15.6024C180.998 15.6259 181.014 15.6546 181.023 15.6859C181.033 15.7196 181.033 15.7553 181.023 15.789V16.6683C181.032 16.7003 181.032 16.7345 181.023 16.7665C181.014 16.7979 180.998 16.8265 180.976 16.85C180.953 16.8753 180.924 16.8939 180.892 16.9041C180.861 16.9116 180.828 16.9116 180.798 16.9041H176.236C176.205 16.9092 176.174 16.9092 176.142 16.9041C176.112 16.8926 176.085 16.8741 176.062 16.85C176.04 16.8262 176.022 16.7978 176.011 16.7665C176.004 16.7358 176.004 16.7039 176.011 16.6732L176.001 16.7027Z" fill="white"/>
</g>
</g>
</svg>
