<svg width="106" height="53" viewBox="0 0 106 53" fill="none" xmlns="http://www.w3.org/2000/svg">
<g clip-path="url(#clip0_17603_2)">
<path d="M102.984 53C104.65 53 106.009 51.6487 105.914 49.9858C105.576 44.0562 104.244 38.2181 101.966 32.7178C99.3021 26.2875 95.3982 20.4448 90.4767 15.5233C85.5552 10.6018 79.7125 6.69788 73.2822 4.03438C66.852 1.37088 59.9601 -3.04234e-07 53 0C46.0399 3.04234e-07 39.148 1.37089 32.7178 4.03439C26.2875 6.69789 20.4448 10.6018 15.5233 15.5233C10.6018 20.4448 6.69788 26.2875 4.03438 32.7178C1.75608 38.2181 0.423553 44.0562 0.0857804 49.9858C-0.00894477 51.6487 1.35023 53 3.01582 53C4.68142 53 6.02156 51.6484 6.12844 49.9862C6.45873 44.8492 7.63177 39.7944 9.6069 35.026C11.9673 29.3275 15.4269 24.1498 19.7884 19.7884C24.1498 15.4269 29.3275 11.9673 35.026 9.6069C40.7244 7.24652 46.832 6.03165 53 6.03165C59.168 6.03165 65.2755 7.24652 70.974 9.6069C76.6725 11.9673 81.8502 15.4269 86.2116 19.7884C90.5731 24.1498 94.0327 29.3275 96.3931 35.026C98.3682 39.7944 99.5413 44.8492 99.8716 49.9862C99.9784 51.6484 101.319 53 102.984 53Z" fill="#D2EFFC"/>
</g>
<defs>
<clipPath id="clip0_17603_2">
<rect width="106" height="53" fill="white"/>
</clipPath>
</defs>
</svg>
