<svg width="25" height="25" viewBox="0 0 24 23" fill="none" xmlns="http://www.w3.org/2000/svg">
<path d="M18.9986 18.2602C20.3224 16.4385 21.0824 14.1549 21.0824 11.6917C21.0824 5.61072 16.3756 0.658691 10.5412 0.658691C4.73127 0.658691 0 5.58507 0 11.6917C0 17.7727 4.70676 22.6991 10.5412 22.6991H10.5657H23.2396L18.9986 18.2602Z" fill="#EF6A23"/>
<path d="M16.0286 10.1455L15.4064 10.7968C14.7364 11.5264 14.0663 12.2038 13.3723 12.9333C13.3963 13.0115 13.3963 13.0896 13.4202 13.1678L13.9945 16.9457C13.9945 17.128 13.9227 17.2844 13.7791 17.3886C13.6356 17.4667 13.492 17.4667 13.3723 17.4146C13.2048 17.3104 13.0134 17.2062 12.8459 17.102L11.1468 16.1119C10.7878 15.9035 10.4528 15.6951 10.0939 15.4866C9.75884 15.6951 9.39989 15.9035 9.06486 16.0859L7.36581 17.0759C7.19829 17.1802 7.00685 17.2844 6.83934 17.3886C6.79148 17.4407 6.69576 17.4407 6.6479 17.4407C6.5761 17.4407 6.50431 17.4146 6.43252 17.3886C6.28894 17.3104 6.21715 17.1541 6.21715 16.9457V16.8936L6.79148 13.1417C6.81541 13.0636 6.81541 12.9854 6.83934 12.9072C6.16929 12.1777 5.49924 11.5003 4.80526 10.7708L4.18307 10.1194C4.03949 9.9631 4.01556 9.80677 4.06342 9.62439C4.11128 9.46807 4.25486 9.33779 4.42237 9.31174C4.68561 9.25963 4.92491 9.23358 5.18814 9.18147L7.74869 8.7646C7.86834 8.73854 7.96407 8.71249 8.05979 8.71249C8.10765 8.63433 8.13158 8.55617 8.17944 8.478C8.2273 8.37379 8.27516 8.29562 8.32302 8.19141L8.68198 7.38372C8.82556 7.09712 8.94521 6.81053 9.06486 6.52393C9.28024 6.05495 9.49561 5.58597 9.71098 5.11699C9.78277 4.96066 9.92635 4.85645 10.1178 4.85645C10.2614 4.85645 10.4289 4.96066 10.5007 5.11699C10.7161 5.58597 10.9314 6.05495 11.1468 6.52393C11.2904 6.81053 11.41 7.09712 11.5297 7.38372L11.8886 8.19141C11.9365 8.29562 11.9844 8.37379 12.0322 8.478C12.0801 8.55617 12.104 8.63433 12.1519 8.71249C12.2715 8.73855 12.3673 8.7646 12.463 8.7646L15.0235 9.18147C15.2868 9.23358 15.5261 9.25963 15.7893 9.31174C15.9568 9.33779 16.1004 9.46807 16.1483 9.62439C16.1961 9.83283 16.1483 9.98916 16.0286 10.1455Z" fill="white"/>
</svg>
