<svg width="139" height="26" viewBox="0 0 139 26" fill="none" xmlns="http://www.w3.org/2000/svg">
<path d="M26.2015 10.4473C26.2015 8.41357 28.356 6.68028 30.8811 6.68028C33.2673 6.68028 35.723 7.76647 35.8388 10.6784H32.665C32.6186 9.73088 31.6688 9.38422 30.9506 9.38422C30.1166 9.38422 29.329 9.68466 29.329 10.6322C29.329 11.1406 29.9313 11.5104 30.6726 11.6953L32.804 12.2037C35.7461 12.9664 36.14 15.0001 36.14 15.9939C36.14 18.5591 33.5685 19.8996 30.9506 19.8996C28.4486 19.8996 25.8771 18.3743 25.8308 15.6241H28.9351C29.0046 16.5254 30.0471 17.2881 31.275 17.2418C32.2016 17.2187 32.943 16.6872 32.943 15.9708C32.9661 15.3237 32.4796 14.977 31.553 14.769L29.8155 14.3299C26.5026 13.4286 26.2015 11.9264 26.2015 10.4473ZM39.2443 0.0244141C40.4026 0.0244141 41.3525 0.902613 41.3525 2.01192C41.3525 3.16746 40.4026 4.02255 39.2443 4.02255C38.0628 4.02255 37.0898 3.14435 37.0898 2.01192C37.0898 0.879502 38.086 0.0244141 39.2443 0.0244141ZM40.866 19.6222H37.5763V6.93449H40.866V19.6222ZM47.7696 6.93449H50.457V9.59222H47.7696V19.6222H44.48V9.59222H42.1633V6.93449H44.48V2.10437H47.7696V6.93449ZM63.523 14.3761H53.8161C54.0246 16.0632 55.4378 17.1032 57.3375 17.1032C58.6116 17.1032 59.909 16.5485 60.5113 15.4854C61.299 15.9245 62.2256 16.4099 63.0365 16.8258C61.8781 18.9982 59.4225 19.8996 57.0826 19.8996C53.4686 19.8996 50.5033 17.2418 50.5033 13.2437C50.5033 9.24556 53.4686 6.68028 57.0826 6.68028C60.6966 6.68028 63.5461 9.24556 63.5461 13.2437C63.5925 13.5672 63.5461 14.0988 63.523 14.3761ZM60.3491 12.1113C60.1175 10.378 58.797 9.43044 57.1753 9.43044C55.4378 9.43044 54.071 10.4242 53.8161 12.1113H60.3491ZM61.8086 22.9271H63.4303C65.052 22.9271 65.33 21.6329 65.3068 20.5467V6.95761H68.666V20.5004C68.666 23.7821 67.4613 26.0008 63.9168 26.0008H61.8086V22.9271ZM66.9748 0.0244141C68.1795 0.0244141 69.1061 0.902613 69.1061 2.01192C69.1061 3.16746 68.1795 4.02255 66.9748 4.02255C65.8165 4.02255 64.8435 3.14435 64.8435 2.01192C64.8203 0.902613 65.8165 0.0244141 66.9748 0.0244141ZM80.5736 18.0045C79.7396 19.2987 77.8863 19.8765 76.6121 19.8765C73.253 19.8765 70.1255 17.3112 70.1255 13.2668C70.1255 9.19934 73.253 6.65716 76.6121 6.65716C77.7705 6.65716 79.6238 7.09627 80.5736 8.50601V6.93449H83.9096V19.6222H80.5736V18.0045ZM77.0755 16.7103C78.8593 16.7103 80.5736 15.4623 80.5736 13.2899C80.5736 11.0713 78.8361 9.86954 77.0755 9.86954C75.2453 9.86954 73.5541 11.21 73.5541 13.2899C73.5541 15.3237 75.2453 16.7103 77.0755 16.7103ZM85.6008 19.6222V0.0475191H88.9368V8.62157C89.6086 7.35048 91.2303 6.65716 92.8983 6.65716C96.2575 6.65716 99.1301 9.22245 99.1301 13.2899C99.1301 17.3112 96.2111 19.8996 92.8983 19.8996C91.2303 19.8996 89.6086 19.1831 88.9368 17.912V19.6222H85.6008ZM92.3423 16.7103C94.1956 16.7103 95.7015 15.3237 95.7015 13.2206C95.7015 11.1637 94.1956 9.80021 92.3423 9.80021C90.628 9.80021 88.96 11.0482 88.96 13.2206C88.9831 15.3699 90.5585 16.7103 92.3423 16.7103ZM100.52 19.6222V0.0475191H103.856V8.62157C104.528 7.35048 106.15 6.65716 107.818 6.65716C111.177 6.65716 114.049 9.22245 114.049 13.2899C114.049 17.3112 111.13 19.8996 107.818 19.8996C106.15 19.8996 104.528 19.1831 103.856 17.912V19.6222H100.52ZM107.262 16.7103C109.115 16.7103 110.621 15.3237 110.621 13.2206C110.621 11.1637 109.115 9.80021 107.262 9.80021C105.547 9.80021 103.879 11.0482 103.879 13.2206C103.879 15.3699 105.478 16.7103 107.262 16.7103ZM128.32 14.3761H118.613C118.822 16.0632 120.235 17.1032 122.135 17.1032C123.409 17.1032 124.706 16.5485 125.308 15.4854C126.096 15.9245 127.023 16.4099 127.834 16.8258C126.675 18.9982 124.22 19.8996 121.88 19.8996C118.266 19.8996 115.3 17.2418 115.3 13.2437C115.3 9.24556 118.266 6.68028 121.88 6.68028C125.494 6.68028 128.343 9.24556 128.343 13.2437C128.39 13.5672 128.366 14.0988 128.32 14.3761ZM125.146 12.1113C124.915 10.378 123.594 9.43044 121.972 9.43044C120.235 9.43044 118.868 10.4242 118.613 12.1113H125.146ZM133.278 19.6222H129.942V6.93449H133.278V9.93888C133.926 7.62781 135.432 6.68028 136.892 6.68028C137.795 6.68028 138.467 6.86516 139 7.14249L138.444 10.1469C137.656 9.80021 136.822 9.80021 136.498 9.80021C134.228 9.80021 133.324 11.8108 133.324 15.185L133.278 19.6222Z" fill="#3C3C3B"/>
<path d="M17.9542 15.8539C19.2052 14.213 19.9233 12.1562 19.9233 9.93757C19.9233 4.46035 15.4753 0 9.96166 0C4.47116 0 0 4.43724 0 9.93757C0 15.4148 4.448 19.852 9.96166 19.852H9.98483H21.962L17.9542 15.8539Z" fill="#EF6A23"/>
<path d="M15.7071 8.55084L15.1047 9.12861C14.4561 9.7757 13.8074 10.3766 13.1356 11.0237C13.1587 11.093 13.1587 11.1623 13.1819 11.2317L13.7379 14.5827C13.7379 14.7445 13.6684 14.8832 13.5294 14.9756C13.3904 15.0449 13.2514 15.0449 13.1356 14.9987C12.9734 14.9063 12.7881 14.8138 12.6259 14.7214L10.9811 13.8432C10.6336 13.6583 10.3092 13.4734 9.96173 13.2885C9.6374 13.4734 9.2899 13.6583 8.96557 13.8201L7.32074 14.6983C7.15857 14.7907 6.97324 14.8832 6.81107 14.9756C6.76474 15.0218 6.67207 15.0218 6.62574 15.0218C6.55624 15.0218 6.48674 14.9987 6.41724 14.9756C6.27824 14.9063 6.20874 14.7676 6.20874 14.5827V14.5365L6.76474 11.2086C6.7879 11.1392 6.7879 11.0699 6.81107 11.0006C6.1624 10.3535 5.51374 9.75259 4.8419 9.10549L4.23957 8.52773C4.10057 8.38906 4.0774 8.2504 4.12374 8.08863C4.17007 7.94996 4.30907 7.83441 4.47124 7.8113C4.72607 7.76507 4.95774 7.74196 5.21257 7.69574L7.6914 7.32597C7.80724 7.30286 7.8999 7.27975 7.99257 7.27975C8.0389 7.21042 8.06207 7.14109 8.1084 7.07176C8.15474 6.97932 8.20107 6.90998 8.2474 6.81754L8.5949 6.10111C8.7339 5.84689 8.84974 5.59268 8.96557 5.33846C9.17407 4.92247 9.38257 4.50647 9.59107 4.09048C9.66057 3.95182 9.79957 3.85938 9.9849 3.85938C10.1239 3.85938 10.2861 3.95182 10.3556 4.09048C10.5641 4.50647 10.7726 4.92247 10.9811 5.33846C11.1201 5.59268 11.2359 5.84689 11.3517 6.10111L11.6992 6.81754C11.7456 6.90998 11.7919 6.97932 11.8382 7.07176C11.8846 7.14109 11.9077 7.21042 11.9541 7.27975C12.0699 7.30286 12.1626 7.32597 12.2552 7.32597L14.7341 7.69574C14.9889 7.74196 15.2206 7.76507 15.4754 7.8113C15.6376 7.83441 15.7766 7.94996 15.8229 8.08863C15.8692 8.27351 15.8229 8.41218 15.7071 8.55084Z" fill="white"/>
</svg>
