<svg width="127" height="26" viewBox="0 0 127 26" fill="none" xmlns="http://www.w3.org/2000/svg">
<g clip-path="url(#clip0_805_414)">
<path d="M120.012 9.68452H122.005V6.09392H124.634V9.66231H127V11.6111H124.634V17.9599C124.634 18.2447 124.656 18.4635 124.678 18.6823C124.7 18.8796 124.765 19.0547 124.831 19.1859C124.919 19.3172 125.05 19.4269 125.204 19.4926C125.379 19.5583 125.598 19.602 125.905 19.602C126.08 19.602 126.277 19.602 126.453 19.5802C126.628 19.5583 126.825 19.5364 127 19.4926V21.5286C126.715 21.5724 126.43 21.5942 126.145 21.6161C125.86 21.6599 125.598 21.6599 125.291 21.6599C124.59 21.6599 124.043 21.5942 123.627 21.463C123.21 21.3317 122.882 21.1347 122.64 20.8937C122.4 20.6311 122.247 20.3244 122.159 19.9522C122.071 19.5802 122.028 19.1203 122.005 18.6388V11.633H120.012V9.64077V9.68452ZM113.222 19.8208C113.791 19.8208 114.317 19.6895 114.733 19.4488C115.171 19.2081 115.5 18.8796 115.784 18.4854C116.069 18.0915 116.267 17.6316 116.398 17.1499C116.529 16.6466 116.595 16.143 116.595 15.6175C116.595 15.1139 116.529 14.6103 116.398 14.1066C116.267 13.6034 116.069 13.1654 115.784 12.7712C115.5 12.3773 115.149 12.0707 114.733 11.83C114.295 11.589 113.791 11.4576 113.222 11.4576C112.652 11.4576 112.126 11.589 111.71 11.83C111.272 12.0707 110.943 12.3992 110.659 12.7712C110.374 13.1654 110.177 13.6034 110.046 14.1066C109.914 14.6103 109.848 15.1139 109.848 15.6175C109.848 16.143 109.914 16.6466 110.046 17.1499C110.177 17.6535 110.374 18.0915 110.659 18.4854C110.943 18.8796 111.294 19.2081 111.71 19.4488C112.148 19.7114 112.652 19.8208 113.222 19.8208ZM113.222 21.9009C112.28 21.9009 111.426 21.7475 110.681 21.4192C109.936 21.0906 109.322 20.6749 108.797 20.1275C108.293 19.5802 107.899 18.9014 107.636 18.1352C107.373 17.3688 107.22 16.515 107.22 15.6175C107.22 14.7197 107.351 13.8879 107.636 13.1217C107.899 12.3554 108.293 11.6987 108.797 11.1294C109.3 10.582 109.936 10.144 110.681 9.83767C111.426 9.53105 112.28 9.35594 113.222 9.35594C114.163 9.35594 115.017 9.50917 115.763 9.83767C116.507 10.144 117.121 10.582 117.646 11.1294C118.15 11.6767 118.544 12.3554 118.807 13.1217C119.07 13.8879 119.223 14.7197 119.223 15.6175C119.223 16.5369 119.092 17.3688 118.807 18.1352C118.523 18.9014 118.15 19.5583 117.646 20.1275C117.143 20.6749 116.507 21.1125 115.763 21.4192C115.017 21.7256 114.186 21.9009 113.222 21.9009ZM102.575 5.15234H105.204V21.5724H102.575V5.15234ZM97.603 9.68452H100.232V21.5724H97.603V9.68452ZM97.603 5.15234H100.232V7.62627H97.603V5.15234ZM92.9809 15.6394C92.9809 15.1139 92.9156 14.5884 92.762 14.0848C92.6307 13.5815 92.4119 13.1435 92.127 12.7493C91.8421 12.3554 91.4919 12.0488 91.0972 11.8081C90.6809 11.5673 90.1995 11.4576 89.6734 11.4576C88.5784 11.4576 87.746 11.83 87.1761 12.5962C86.6286 13.3624 86.3437 14.3915 86.3437 15.6613C86.3437 16.2743 86.4098 16.8216 86.5625 17.325C86.7161 17.8286 86.9135 18.2666 87.2199 18.6388C87.5048 19.0108 87.855 19.2953 88.2712 19.5144C88.6874 19.7333 89.1474 19.843 89.6957 19.843C90.3085 19.843 90.7908 19.7114 91.207 19.4707C91.6232 19.2297 91.9519 18.9014 92.236 18.5291C92.4994 18.1352 92.6968 17.6973 92.8058 17.1937C92.9156 16.6682 92.9809 16.1649 92.9809 15.6394ZM83.8026 9.68452H86.2785V11.3045H86.3222C86.6939 10.6039 87.1984 10.1222 87.855 9.81579C88.5123 9.50917 89.2135 9.35594 90.0021 9.35594C90.9436 9.35594 91.7545 9.50917 92.4556 9.85955C93.1559 10.1878 93.7258 10.6258 94.1858 11.217C94.6458 11.7862 94.9967 12.4648 95.2156 13.231C95.4344 13.9973 95.5657 14.8294 95.5657 15.6832C95.5657 16.4931 95.4567 17.2593 95.2593 18.004C95.0405 18.7483 94.7333 19.4269 94.3171 19.9962C93.9017 20.5655 93.3756 21.025 92.7183 21.3755C92.0609 21.7256 91.3168 21.9009 90.4398 21.9009C90.0682 21.9009 89.6734 21.8572 89.301 21.7915C88.9285 21.7256 88.5561 21.6161 88.2059 21.463C87.855 21.3098 87.5271 21.1125 87.2422 20.8719C86.935 20.6311 86.6939 20.3463 86.4973 20.04H86.4535V25.9729H83.8249V9.68452H83.8026ZM74.975 9.68452H76.9684V6.09392H79.5975V9.66231H81.9627V11.6111H79.5975V17.9599C79.5975 18.2447 79.619 18.4635 79.6405 18.6823C79.6628 18.8796 79.7288 19.0547 79.7941 19.1859C79.8816 19.3172 80.0129 19.4269 80.1665 19.4926C80.3416 19.5583 80.5613 19.602 80.8676 19.602C81.0427 19.602 81.2401 19.602 81.4152 19.5802C81.5902 19.5583 81.7876 19.5364 81.9627 19.4926V21.5286C81.6786 21.5724 81.3929 21.5942 81.1088 21.6161C80.8239 21.6599 80.5612 21.6599 80.254 21.6599C79.5529 21.6599 79.0054 21.5942 78.5892 21.463C78.173 21.3317 77.8448 21.1344 77.6036 20.8937C77.3628 20.6311 77.2095 20.3244 77.1216 19.9522C77.0344 19.5802 76.9903 19.1203 76.9684 18.6388V11.633H74.975V9.64077V9.68452ZM66.3227 17.763C66.4102 18.5291 66.6949 19.0547 67.1987 19.3832C67.7026 19.6895 68.316 19.843 69.0169 19.843C69.2577 19.843 69.5426 19.8208 69.8492 19.7771C70.1561 19.7333 70.4625 19.6677 70.7256 19.5583C71.0102 19.4488 71.2292 19.2953 71.4043 19.0765C71.5798 18.8577 71.6674 18.5948 71.6455 18.2666C71.6236 17.9383 71.5141 17.6535 71.273 17.4347C71.0321 17.2155 70.7472 17.0624 70.3969 16.9092C70.0462 16.7779 69.6303 16.6682 69.1702 16.5807C68.71 16.4931 68.2503 16.3837 67.7683 16.2743C67.2863 16.1649 66.8046 16.0333 66.3445 15.8801C65.8844 15.7269 65.49 15.53 65.1178 15.2452C64.7671 14.9826 64.4607 14.654 64.2633 14.2382C64.0444 13.8222 63.9349 13.3404 63.9349 12.7274C63.9349 12.0707 64.0881 11.5451 64.4169 11.1075C64.7234 10.6695 65.1397 10.3194 65.6214 10.0565C66.1036 9.79391 66.651 9.59668 67.2425 9.48729C67.834 9.37782 68.4036 9.33406 68.9293 9.33406C69.5426 9.33406 70.1342 9.3997 70.6815 9.53105C71.2291 9.66231 71.755 9.85955 72.1931 10.1659C72.6533 10.4507 73.0255 10.8446 73.3104 11.3045C73.6169 11.7643 73.7921 12.3336 73.88 12.9904H71.1416C71.0102 12.3554 70.7256 11.9393 70.2874 11.7206C69.8273 11.5017 69.3237 11.392 68.7323 11.392C68.5568 11.392 68.316 11.4139 68.0751 11.4357C67.812 11.4795 67.5931 11.5233 67.352 11.6111C67.133 11.6987 66.936 11.83 66.7824 11.9831C66.6291 12.1366 66.5416 12.3554 66.5416 12.6181C66.5416 12.9465 66.651 13.1873 66.8703 13.3843C67.0893 13.5815 67.3739 13.7346 67.7464 13.8879C68.097 14.0191 68.513 14.1289 68.9731 14.2164C69.4332 14.304 69.9149 14.4134 70.3969 14.5227C70.8788 14.6321 71.3387 14.7637 71.7987 14.917C72.2589 15.0701 72.6748 15.2671 73.0255 15.5518C73.3761 15.8144 73.6826 16.143 73.9016 16.5369C74.1208 16.9311 74.2303 17.4347 74.2303 18.004C74.2303 18.7045 74.077 19.2953 73.7483 19.7989C73.4199 20.2807 73.0036 20.6967 72.4997 21.0031C71.9961 21.3098 71.4043 21.5286 70.7913 21.6818C70.1561 21.8131 69.5426 21.9009 68.9293 21.9009C68.1843 21.9009 67.4834 21.8131 66.848 21.638C66.2132 21.463 65.6436 21.2004 65.1835 20.8719C64.7234 20.5214 64.3512 20.1056 64.0881 19.5802C63.8254 19.0766 63.6718 18.4635 63.6502 17.741H66.3007V17.763H66.3227ZM61.8539 21.5724H59.2691V19.9087H59.2253C58.8966 20.5214 58.4146 20.9812 57.7794 21.3536C57.1444 21.7256 56.487 21.9009 55.8298 21.9009C54.2747 21.9009 53.1355 21.5286 52.4346 20.7405C51.7337 19.9743 51.383 18.7921 51.383 17.2374V9.68452H54.012V16.9749C54.012 18.0255 54.209 18.7702 54.625 19.1859C55.0194 19.6239 55.589 19.843 56.3118 19.843C56.8595 19.843 57.3196 19.7552 57.6918 19.5802C58.0643 19.405 58.3708 19.1859 58.5901 18.9014C58.8309 18.6167 58.9842 18.2666 59.0939 17.8724C59.2034 17.4785 59.2472 17.0405 59.2472 16.5807V9.68452H61.8758V21.5724H61.8539ZM42.8401 9.68452H45.2935V11.9831H45.3373C45.4249 11.6548 45.5784 11.3482 45.7974 11.0419C46.0164 10.7352 46.2794 10.4507 46.6078 10.2097C46.9147 9.94714 47.265 9.75016 47.6594 9.59668C48.0316 9.44354 48.4261 9.35594 48.8201 9.35594C49.1269 9.35594 49.3459 9.37782 49.4554 9.37782C49.5651 9.3997 49.6965 9.42158 49.806 9.42158V11.9393C49.6309 11.8956 49.4338 11.8737 49.2364 11.8518C49.0394 11.83 48.8642 11.8081 48.6669 11.8081C48.2287 11.8081 47.8126 11.8956 47.4182 12.0707C47.0241 12.246 46.6954 12.5086 46.3889 12.8372C46.1039 13.1873 45.8631 13.6034 45.6879 14.1066C45.5125 14.6103 45.4249 15.2015 45.4249 15.8582V21.5067H42.7963L42.8401 9.68452ZM30.1132 5.15234H43.4096V7.62627H38.1744V21.5724H35.3046V7.62627H30.0912L30.1132 5.15234Z" fill="black"/>
<path d="M25.0423 8.90759H15.4749L12.5297 0L9.56712 8.90759L0 8.89079L7.73747 14.4027L4.77484 23.3103L12.5123 17.7984L20.2497 23.3103L17.3046 14.4027L25.0423 8.90759Z" fill="#00B67A"/>
<path d="M17.8873 16.4713L17.2338 14.3447L12.5211 17.9309L17.8873 16.4713Z" fill="#005128"/>
</g>
<defs>
<clipPath id="clip0_805_414">
<rect width="127" height="26" fill="white"/>
</clipPath>
</defs>
</svg>
