<svg width="15" height="15" viewBox="0 0 15 15" fill="none" xmlns="http://www.w3.org/2000/svg">
<g clip-path="url(#clip0_17580_1882)">
<path d="M14.4117 6.29893L14.0801 7.1128C13.9754 7.38986 13.9754 7.68424 14.0801 7.9613L14.4117 8.77517C14.6036 9.26002 14.4466 9.81415 14.0103 10.1258L13.2775 10.628C13.0332 10.8012 12.8761 11.0609 12.8063 11.338L12.6493 12.2038C12.5446 12.7233 12.1083 13.1043 11.5849 13.1216L10.6949 13.1562C10.3983 13.1735 10.1191 13.2947 9.90969 13.5025L9.29895 14.1432C8.93251 14.5242 8.35668 14.6108 7.90299 14.351L7.13521 13.9008C6.87346 13.745 6.57682 13.7103 6.28018 13.7796L5.4077 13.9874C4.90166 14.1086 4.36072 13.8662 4.11643 13.3986L3.71509 12.6021C3.57549 12.3423 3.34864 12.1345 3.06945 12.048L2.23187 11.7709C1.72583 11.5977 1.41174 11.1129 1.46409 10.5934L1.55134 9.71025C1.58624 9.41587 1.49899 9.12149 1.30704 8.89638L0.748657 8.20373C0.417114 7.78813 0.417114 7.21669 0.748657 6.8011L1.30704 6.10845C1.49899 5.88334 1.58624 5.58896 1.55134 5.29458L1.46409 4.41145C1.41174 3.89195 1.72583 3.4071 2.23187 3.23393L3.06945 2.95687C3.34864 2.87029 3.57549 2.66249 3.71509 2.40275L4.11643 1.6062C4.36072 1.13865 4.88421 0.896225 5.4077 1.01744L6.28018 1.22524C6.55937 1.2945 6.87346 1.25987 7.13521 1.10402L7.90299 0.653797C8.35668 0.394051 8.93251 0.463317 9.29895 0.861593L9.90969 1.5023C10.1191 1.71009 10.3983 1.84862 10.6949 1.84862L11.5849 1.88326C12.1083 1.90057 12.562 2.28153 12.6493 2.80102L12.8063 3.66684C12.8587 3.96122 13.0332 4.22097 13.2775 4.37681L14.0103 4.87899C14.4466 5.25995 14.6211 5.81407 14.4117 6.29893Z" fill="#00D566"/>
<g opacity="0.15">
<path d="M4.62247 13.347L4.22112 12.5505C4.08153 12.2907 3.85468 12.083 3.57549 11.9964L2.73791 11.7193C2.23187 11.5461 1.91778 11.0613 1.97013 10.5418L2.05738 9.65866C2.09227 9.36428 2.00503 9.06991 1.81308 8.84479L1.25469 8.15214C0.923152 7.73655 0.923152 7.16511 1.25469 6.74952L1.81308 6.05686C2.00503 5.83175 2.09227 5.53737 2.05738 5.24299L1.97013 4.35986C1.91778 3.84037 2.23187 3.35551 2.73791 3.18235L3.57549 2.90528C3.85468 2.8187 4.08153 2.61091 4.22112 2.35116L4.62247 1.55461C4.76206 1.27755 5.00636 1.08707 5.2681 1.00049C4.79696 0.93122 4.32582 1.17365 4.11643 1.60656L3.71509 2.40311C3.57549 2.66286 3.34864 2.87065 3.06945 2.95723L2.23187 3.23429C1.72583 3.40746 1.41174 3.89232 1.46409 4.41181L1.55134 5.29494C1.58624 5.58932 1.49899 5.8837 1.30704 6.10881L0.748657 6.80146C0.417114 7.21706 0.417114 7.7885 0.748657 8.20409L1.30704 8.89674C1.49899 9.12186 1.58624 9.41623 1.55134 9.71061L1.46409 10.5937C1.41174 11.1132 1.72583 11.5981 2.23187 11.7713L3.06945 12.0483C3.34864 12.1349 3.57549 12.3427 3.71509 12.6024L4.11643 13.399C4.36072 13.8665 4.88421 14.109 5.4077 13.9878L5.51239 13.9704C5.1285 13.9012 4.79696 13.6934 4.62247 13.347Z" fill="black"/>
<path d="M7.62364 1.05222L8.39142 0.601997C8.46122 0.567365 8.53101 0.532732 8.60081 0.515415C8.35652 0.480783 8.09477 0.532732 7.88538 0.653946L7.1176 1.10417C7.0478 1.1388 6.978 1.17344 6.9082 1.19075C7.1525 1.22539 7.39679 1.19075 7.62364 1.05222Z" fill="black"/>
<path d="M11.1837 13.0873C11.0965 13.0873 11.0093 13.1046 10.9395 13.1219L11.5676 13.0873C11.6549 13.0873 11.7247 13.07 11.8119 13.0527L11.1837 13.0873Z" fill="black"/>
<path d="M8.39157 14.2817L7.62379 13.8315C7.36205 13.6757 7.0654 13.641 6.76876 13.7103L6.66406 13.7276C6.82111 13.7449 6.96071 13.7969 7.1003 13.8661L7.86808 14.3164C8.16473 14.4895 8.49627 14.5068 8.81036 14.4029C8.67077 14.4029 8.53117 14.3683 8.39157 14.2817Z" fill="black"/>
</g>
<path d="M4.72656 6.43761L6.90776 8.91385L11.3749 5.34668" fill="#00D566"/>
<path d="M6.38381 10.195C6.13951 10.195 5.89522 10.0911 5.72072 9.90065L3.53952 7.42441C3.22543 7.06077 3.26033 6.52396 3.60932 6.19495C3.97576 5.88326 4.5167 5.91789 4.84824 6.26422L6.4885 8.11707L10.31 5.06939C10.6764 4.77501 11.2348 4.82696 11.5314 5.20792C11.8281 5.58888 11.7757 6.12569 11.3918 6.42006L6.92474 10.0045C6.7677 10.1258 6.57575 10.195 6.38381 10.195Z" fill="white"/>
</g>
<defs>
<clipPath id="clip0_17580_1882">
<rect width="15" height="15" fill="white"/>
</clipPath>
</defs>
</svg>
